<svg width="512" height="521" viewBox="0 0 512 521" fill="none" xmlns="http://www.w3.org/2000/svg">
<path d="M324.772 95.739C327.762 95.739 330.25 95.5306 331.428 96.781C332.605 98.0314 330.476 98.99 332.595 98.99C334.715 98.99 337.715 98.8233 337.408 100.167C337.254 100.886 336.947 101.595 337.254 101.845C337.981 102.439 339.19 102.7 341.35 102.616C339.702 103.429 335.155 103.252 335.77 102.293C336.189 101.626 335.043 101.751 332.472 101.751C329.902 101.751 329.503 100.949 329.892 99.9695C330.281 98.99 324.772 99.4798 324.772 99.4798V95.739Z" fill="#CA0000"/>
<path d="M324.772 112.119C324.65 112.119 324.532 112.07 324.446 111.982C324.36 111.894 324.311 111.775 324.311 111.65V94.2593C324.301 94.1912 324.306 94.1216 324.325 94.0555C324.343 93.9893 324.376 93.928 324.42 93.8758C324.464 93.8237 324.519 93.7818 324.581 93.7531C324.642 93.7244 324.709 93.7095 324.777 93.7095C324.845 93.7095 324.912 93.7244 324.973 93.7531C325.035 93.7818 325.089 93.8237 325.134 93.8758C325.178 93.928 325.211 93.9893 325.229 94.0555C325.248 94.1216 325.253 94.1912 325.243 94.2593V111.65C325.243 111.713 325.231 111.775 325.207 111.832C325.183 111.89 325.148 111.942 325.104 111.986C325.06 112.029 325.008 112.064 324.951 112.087C324.894 112.11 324.833 112.121 324.772 112.119Z" fill="#644545"/>
<path d="M435.046 297.272C434.852 310.005 440.73 325.073 440.73 325.073L437.862 324.031C432.978 307.098 435.046 297.272 435.046 297.272Z" fill="#CA0000"/>
<path opacity="0.15" d="M435.046 297.272C434.852 310.005 440.73 325.073 440.73 325.073L437.862 324.031C432.978 307.098 435.046 297.272 435.046 297.272Z" fill="white"/>
<path opacity="0.6" d="M439.224 324.406C439.224 324.458 439.224 324.5 439.276 324.541L437.862 324.02C432.978 307.098 435.046 297.272 435.046 297.272C434.063 303.597 436.726 317.945 439.224 324.406Z" fill="#CA0000"/>
<path d="M440.73 325.104C440.264 317.828 440.781 310.522 442.266 303.389C444.692 293.021 449.137 287.759 449.137 287.759C449.137 287.759 443.3 291.927 439.921 303.149C437.897 309.805 436.899 316.74 436.961 323.708L440.73 325.104Z" fill="#CA0000"/>
<path opacity="0.2" d="M440.73 325.104C440.264 317.828 440.781 310.522 442.266 303.389C444.692 293.021 449.137 287.759 449.137 287.759C449.137 287.759 443.3 291.927 439.921 303.149C437.897 309.805 436.899 316.74 436.961 323.708L440.73 325.104Z" fill="white"/>
<path opacity="0.6" d="M438.753 324.354L436.961 323.697C436.899 316.73 437.897 309.795 439.921 303.139C443.3 291.864 449.137 287.748 449.137 287.748C443.658 292.937 437.75 307.765 438.753 324.354Z" fill="#CA0000"/>
<path d="M440.73 325.104C440.73 325.104 440.924 315.601 450.765 305.921C444.476 310.209 439.9 316.643 437.862 324.062L440.73 325.104Z" fill="#CA0000"/>
<path opacity="0.2" d="M440.73 325.104C440.73 325.104 440.924 315.601 450.765 305.921C444.476 310.209 439.9 316.643 437.862 324.062L440.73 325.104Z" fill="white"/>
<path opacity="0.6" d="M439.224 324.406C439.229 324.444 439.229 324.482 439.224 324.52L437.862 324.062C439.902 316.647 444.478 310.217 450.765 305.931C446.106 309.891 440.689 316.257 439.224 324.406Z" fill="#CA0000"/>
<path opacity="0.1" d="M393.021 327.146L397.087 329.699L400.415 334.367L403.558 333.669L407.634 335.607L412.498 331.7L417.649 330.96L423.69 331.429L426.189 334.18L430.582 335.43L437.002 332.106L443.32 324.76L434.412 324.197L420.454 326.552L425.882 324.416L429.189 320.728L427.94 318.717L423.363 312.402L415.304 312.704L392.622 316.372L393.021 327.146Z" fill="black"/>
<path d="M406.712 303.107L396.974 309.745L393.687 314.528L400.067 315.434L408.187 319.206L410.276 313.986L406.559 308.838L406.712 303.107Z" fill="#CA0000"/>
<path opacity="0.3" d="M406.712 303.107L396.974 309.745L393.687 314.528L400.067 315.434L408.187 319.206L410.276 313.986L406.559 308.838L406.712 303.107Z" fill="black"/>
<path d="M406.712 303.107L412.672 303.295L413.983 309.432L410.276 313.986L406.559 308.838L406.712 303.107Z" fill="#CA0000"/>
<path opacity="0.35" d="M406.712 303.107L412.672 303.295L413.983 309.432L410.276 313.986L406.559 308.838L406.712 303.107Z" fill="black"/>
<path d="M421.386 309.839L422.236 314.642L417.915 313.257L412.764 316.018L410.46 318.988L408.699 324.802L406.938 332.95L404.337 325.969L408.187 319.206L411.986 314.788L417.597 312.736L421.386 309.839Z" fill="#CA0000"/>
<path d="M416.041 328.23L423.311 321.895L420.157 316.278L416.041 328.23Z" fill="#CA0000"/>
<g opacity="0.5">
<path d="M421.386 309.839L422.236 314.642L417.915 313.257L412.764 316.018L410.46 318.988L408.699 324.802L406.938 332.95L404.337 325.969L408.187 319.206L411.986 314.788L417.597 312.736L421.386 309.839Z" fill="black"/>
<path d="M416.041 328.23L423.311 321.895L420.157 316.278L416.041 328.23Z" fill="black"/>
</g>
<path d="M401.029 306.984L397.507 311.204L396.708 313.548L400.241 313.694L408.187 319.206L400.067 315.434L393.687 314.528L396.974 309.745L401.029 306.984Z" fill="#CA0000"/>
<path d="M412.672 303.295L412.6 309.151L409.313 312.652L410.276 313.986L413.983 309.432L412.672 303.295Z" fill="#CA0000"/>
<path d="M404.337 325.969L399.8 325.156L390.554 322.322L384.676 317.998L386.755 314.788L390.205 314.163L387.42 315.466L387.021 317.706L390.216 320.155L403.814 324.646L408.187 319.206L404.337 325.969Z" fill="#CA0000"/>
<g opacity="0.25">
<path d="M401.029 306.984L397.507 311.204L396.708 313.548L400.241 313.694L408.187 319.206L400.067 315.434L393.687 314.528L396.974 309.745L401.029 306.984Z" fill="black"/>
<path d="M412.672 303.295L412.6 309.151L409.313 312.652L410.276 313.986L413.983 309.432L412.672 303.295Z" fill="black"/>
<path d="M404.337 325.969L399.8 325.156L390.554 322.322L384.676 317.998L386.755 314.788L390.205 314.163L387.42 315.466L387.021 317.706L390.216 320.155L403.814 324.646L408.187 319.206L404.337 325.969Z" fill="black"/>
</g>
<path d="M396.974 309.745L390.205 314.163L387.42 315.466L387.021 317.706L390.216 320.155L403.814 324.646L405.053 323.103L400.302 318.779L396.81 319.113L393.687 314.528L396.974 309.745Z" fill="#CA0000"/>
<path opacity="0.35" d="M396.974 309.745L390.205 314.163L387.42 315.466L387.021 317.706L390.216 320.155L403.814 324.646L405.053 323.103L400.302 318.779L396.81 319.113L393.687 314.528L396.974 309.745Z" fill="black"/>
<path d="M412.672 303.295L421.386 309.839L417.597 312.735L411.986 314.788L408.187 319.206L410.276 313.986L413.983 309.432L412.672 303.295Z" fill="#CA0000"/>
<path d="M417.915 313.256L412.764 316.018L410.46 318.987L408.699 324.802L410.337 330.147L416.041 328.23L420.157 316.278L417.915 313.256Z" fill="#CA0000"/>
<path d="M393.687 314.528L396.81 319.113L400.302 318.779L400.067 315.434L393.687 314.528Z" fill="#CA0000"/>
<path d="M389.233 325.677L392.141 326.365L393.544 324.719L399.8 325.156L390.554 322.322L389.233 325.677Z" fill="#CA0000"/>
<g opacity="0.45">
<path d="M412.672 303.295L421.386 309.839L417.597 312.735L411.986 314.788L408.187 319.206L410.276 313.986L413.983 309.432L412.672 303.295Z" fill="black"/>
<path d="M417.915 313.256L412.764 316.018L410.46 318.987L408.699 324.802L410.337 330.147L416.041 328.23L420.158 316.278L417.915 313.256Z" fill="black"/>
<path d="M393.687 314.528L396.81 319.113L400.302 318.779L400.067 315.434L393.687 314.528Z" fill="black"/>
<path d="M389.233 325.677L392.141 326.365L393.544 324.719L399.8 325.156L390.554 322.322L389.233 325.677Z" fill="black"/>
</g>
<path d="M402.442 325.635L399.8 325.156L397.312 328.22L399.923 331.617L402.442 325.635Z" fill="#CA0000"/>
<path opacity="0.35" d="M402.442 325.635L399.8 325.156L397.312 328.22L399.923 331.617L402.442 325.635Z" fill="black"/>
<path d="M422.236 314.642L425.708 319.258L423.311 321.895L420.157 316.278L417.915 313.256L422.236 314.642Z" fill="#CA0000"/>
<path d="M406.938 332.95L410.337 330.147L408.699 324.802L406.938 332.95Z" fill="#CA0000"/>
<path d="M408.187 319.206L405.053 323.103L400.302 318.779L400.067 315.434L408.187 319.206Z" fill="#CA0000"/>
<path d="M384.676 317.998L383.293 322.051L389.233 325.677L390.554 322.322L384.676 317.998Z" fill="#CA0000"/>
<path d="M406.938 332.95L399.923 331.617L402.442 325.635L404.337 325.969L406.938 332.95Z" fill="#CA0000"/>
<path d="M392.141 326.365L397.312 328.22L399.8 325.156L393.544 324.719L392.141 326.365Z" fill="#CA0000"/>
<g opacity="0.4">
<path d="M422.236 314.642L425.708 319.258L423.311 321.895L420.157 316.278L417.915 313.256L422.236 314.642Z" fill="black"/>
<path d="M406.938 332.95L410.337 330.147L408.699 324.802L406.938 332.95Z" fill="black"/>
<path d="M408.187 319.206L405.053 323.103L400.302 318.779L400.067 315.434L408.187 319.206Z" fill="black"/>
<path d="M384.676 317.998L383.293 322.051L389.233 325.677L390.554 322.322L384.676 317.998Z" fill="black"/>
<path d="M406.938 332.95L399.923 331.617L402.442 325.635L404.337 325.969L406.938 332.95Z" fill="black"/>
<path d="M392.141 326.365L397.312 328.22L399.8 325.156L393.544 324.718L392.141 326.365Z" fill="black"/>
</g>
<path d="M430.275 316.185L424.909 319.832L423.107 322.468L426.619 322.968L431.084 325.042L432.241 322.166L430.193 319.331L430.275 316.185Z" fill="#CA0000"/>
<path opacity="0.3" d="M430.275 316.185L424.909 319.832L423.107 322.468L426.619 322.968L431.084 325.042L432.241 322.166L430.193 319.331L430.275 316.185Z" fill="black"/>
<path d="M430.275 316.185L433.562 316.289L434.278 319.665L432.241 322.166L430.193 319.331L430.275 316.185Z" fill="#CA0000"/>
<path opacity="0.35" d="M430.275 316.185L433.562 316.289L434.278 319.665L432.241 322.166L430.193 319.331L430.275 316.185Z" fill="black"/>
<path d="M438.354 319.884L438.825 322.53L436.439 321.77L433.603 323.291L432.343 324.927L431.37 328.126L430.397 332.606L428.974 328.761L431.084 325.042L433.183 322.614L436.265 321.478L438.354 319.884Z" fill="#CA0000"/>
<path d="M435.415 330.012L439.409 326.521L437.678 323.437L435.415 330.012Z" fill="#CA0000"/>
<g opacity="0.5">
<path d="M438.354 319.884L438.825 322.53L436.439 321.77L433.603 323.291L432.343 324.927L431.37 328.126L430.397 332.606L428.974 328.761L431.084 325.042L433.183 322.614L436.265 321.478L438.354 319.884Z" fill="black"/>
<path d="M435.415 330.012L439.409 326.521L437.678 323.437L435.415 330.012Z" fill="black"/>
</g>
<path d="M427.141 318.31L425.206 320.634L424.765 321.926L426.711 322.009L431.084 325.041L426.619 322.968L423.107 322.468L424.909 319.831L427.141 318.31Z" fill="#CA0000"/>
<path d="M433.562 316.289L433.521 319.509L431.708 321.436L432.241 322.166L434.279 319.665L433.562 316.289Z" fill="#CA0000"/>
<path d="M428.974 328.761L426.476 328.324L421.376 326.761L418.14 324.375L419.287 322.614L421.192 322.27L419.656 322.978L419.431 324.218L421.192 325.562L428.677 328.032L431.084 325.041L428.974 328.761Z" fill="#CA0000"/>
<g opacity="0.25">
<path d="M427.141 318.31L425.206 320.634L424.766 321.926L426.711 322.009L431.084 325.042L426.619 322.968L423.107 322.468L424.909 319.832L427.141 318.31Z" fill="black"/>
<path d="M433.562 316.289L433.521 319.509L431.708 321.436L432.241 322.166L434.279 319.665L433.562 316.289Z" fill="black"/>
<path d="M428.974 328.761L426.476 328.324L421.376 326.761L418.14 324.375L419.287 322.614L421.192 322.27L419.656 322.978L419.431 324.218L421.192 325.562L428.677 328.032L431.084 325.041L428.974 328.761Z" fill="black"/>
</g>
<path d="M424.909 319.831L421.192 322.27L419.656 322.978L419.43 324.218L421.192 325.562L428.677 328.032L429.363 327.188L426.742 324.812L424.827 324.989L423.107 322.468L424.909 319.831Z" fill="#CA0000"/>
<path opacity="0.35" d="M424.909 319.831L421.192 322.27L419.656 322.978L419.43 324.218L421.192 325.562L428.677 328.032L429.363 327.188L426.742 324.812L424.827 324.989L423.107 322.468L424.909 319.831Z" fill="black"/>
<path d="M433.562 316.289L438.354 319.884L436.265 321.478L433.183 322.614L431.084 325.042L432.241 322.166L434.278 319.665L433.562 316.289Z" fill="#CA0000"/>
<path d="M436.439 321.77L433.603 323.291L432.343 324.927L431.37 328.126L432.271 331.064L435.415 330.012L437.678 323.437L436.439 321.77Z" fill="#CA0000"/>
<path d="M423.107 322.468L424.827 324.989L426.742 324.812L426.619 322.968L423.107 322.468Z" fill="#CA0000"/>
<path d="M420.649 328.605L422.257 328.991L423.025 328.084L426.476 328.324L421.376 326.761L420.649 328.605Z" fill="#CA0000"/>
<g opacity="0.45">
<path d="M433.562 316.289L438.354 319.884L436.265 321.478L433.183 322.614L431.084 325.042L432.241 322.166L434.278 319.665L433.562 316.289Z" fill="black"/>
<path d="M436.439 321.77L433.603 323.291L432.343 324.927L431.37 328.126L432.271 331.064L435.415 330.012L437.678 323.437L436.439 321.77Z" fill="black"/>
<path d="M423.107 322.468L424.827 324.989L426.742 324.812L426.619 322.968L423.107 322.468Z" fill="black"/>
<path d="M420.649 328.605L422.257 328.991L423.025 328.084L426.476 328.324L421.376 326.761L420.649 328.605Z" fill="black"/>
</g>
<path d="M427.93 328.584L426.476 328.324L425.103 330.001L426.537 331.877L427.93 328.584Z" fill="#CA0000"/>
<path opacity="0.35" d="M427.93 328.584L426.476 328.324L425.103 330.001L426.537 331.877L427.93 328.584Z" fill="black"/>
<path d="M438.825 322.53L440.73 325.073L439.409 326.521L437.678 323.437L436.439 321.77L438.825 322.53Z" fill="#CA0000"/>
<path d="M430.397 332.606L432.271 331.064L431.37 328.126L430.397 332.606Z" fill="#CA0000"/>
<path d="M431.084 325.042L429.363 327.188L426.742 324.812L426.619 322.968L431.084 325.042Z" fill="#CA0000"/>
<path d="M418.14 324.375L417.382 326.605L420.649 328.605L421.376 326.761L418.14 324.375Z" fill="#CA0000"/>
<path d="M430.397 332.606L426.537 331.877L427.93 328.584L428.974 328.761L430.397 332.606Z" fill="#CA0000"/>
<path d="M422.257 328.991L425.103 330.001L426.476 328.324L423.025 328.084L422.257 328.991Z" fill="#CA0000"/>
<g opacity="0.4">
<path d="M438.825 322.53L440.73 325.073L439.409 326.521L437.678 323.437L436.439 321.77L438.825 322.53Z" fill="black"/>
<path d="M430.397 332.606L432.271 331.064L431.37 328.126L430.397 332.606Z" fill="black"/>
<path d="M431.084 325.041L429.363 327.188L426.742 324.812L426.619 322.968L431.084 325.041Z" fill="black"/>
<path d="M418.14 324.375L417.382 326.604L420.649 328.605L421.376 326.761L418.14 324.375Z" fill="black"/>
<path d="M430.397 332.606L426.537 331.877L427.93 328.584L428.974 328.761L430.397 332.606Z" fill="black"/>
<path d="M422.257 328.991L425.103 330.001L426.476 328.324L423.025 328.084L422.257 328.991Z" fill="black"/>
</g>
<path d="M147.937 28.853C146.34 30.0617 143.964 30.0721 141.885 29.895C139.459 29.6657 136.704 29.4156 134.871 31.062C134.037 32.0006 133.289 33.0157 132.639 34.0942C130.591 36.8243 126.259 35.1362 124.559 38.7832C124.324 39.3146 124.396 40.9923 123.73 41.1902C123.064 41.3882 121.621 40.3566 120.914 40.2733C118.609 40.1418 116.298 40.3525 114.053 40.8985C113.019 41.0954 112.033 41.5 111.154 42.0886C110.275 42.6772 109.52 43.438 108.933 44.3267C108.36 45.2228 107.909 46.3273 106.885 46.6086C106.292 46.7212 105.681 46.6709 105.114 46.4628C103.134 45.7619 101.064 45.3651 98.9696 45.2853C96.8602 45.3582 94.6279 46.4002 93.8496 48.3384C93.737 48.6093 93.6243 48.9427 93.3376 49.0157C93.0509 49.0886 92.7744 48.8802 92.5491 48.6926C91.7599 48.0588 90.8343 47.6245 89.8481 47.4253C88.862 47.226 87.8435 47.2675 86.8762 47.5464C86.2358 47.7095 85.6624 48.0742 85.2378 48.5884C84.6848 49.3491 84.7258 50.4015 84.2138 51.1622C83.2615 52.4751 81.2442 52.2042 79.6365 51.8395C77.5168 51.381 75.049 51.1205 73.3696 52.5064C72.9191 52.8815 72.5607 53.3504 72.0794 53.6942C70.7994 54.6425 69.0074 54.4549 67.4509 54.3924C66.4269 54.3924 54.1389 55.4344 54.4051 56.4764C54.6714 57.5184 57.6922 57.1328 58.3885 57.1641C59.4125 57.1641 60.4365 57.3725 61.4605 57.3517C62.4671 57.1526 63.5006 57.1384 64.512 57.31C65.1571 57.5601 65.5975 58.0915 66.304 58.279C67.9573 58.5981 69.6674 58.3755 71.1885 57.6434C72.9805 56.9244 74.8851 55.7678 76.8717 55.747C77.8157 55.8746 78.7325 56.1598 79.5853 56.591C81.4008 57.0785 83.3173 57.0096 85.0944 56.393C86.1184 56.07 87.7159 55.2156 88.8627 55.4552C89.5079 55.5907 90.2349 56.195 90.9107 56.4034C91.7949 56.6792 92.704 56.8642 93.6243 56.9557C96.9114 57.2475 100.035 55.2572 103.076 54.309C106.967 53.1107 109.22 53.8714 112.292 56.07C113.59 56.969 115.087 57.5263 116.649 57.6918C118.211 57.8572 119.789 57.6258 121.242 57.0182C122.088 56.5723 122.96 56.1791 123.853 55.8408C126.1 55.0886 128.532 55.1437 130.744 55.9971C132 56.7623 133.35 57.3545 134.758 57.758C139.459 58.6125 143.626 52.8502 148.265 53.9964C149.195 54.2859 150.088 54.6845 150.927 55.1843C153.516 56.3779 156.221 57.2929 158.997 57.9143C159.496 58.0784 160.018 58.1559 160.543 58.1436C161.258 58.0324 161.936 57.7464 162.519 57.31C163.653 56.4949 164.864 55.7968 166.134 55.226C166.767 54.9396 167.453 54.7916 168.146 54.7916C168.839 54.7916 169.525 54.9396 170.158 55.226C170.736 55.6929 171.365 56.0915 172.032 56.4139C173.896 56.8828 175.391 54.6737 177.285 54.3299C179.18 53.986 180.859 55.4552 182.743 55.2156C184.627 54.9759 186.563 53.8505 188.631 53.6421C193.27 53.1732 198.011 54.1631 202.568 52.8398C204.257 52.1999 206.012 51.7593 207.8 51.5269C211.118 51.3602 214.426 53.3608 217.631 52.4959C217.757 52.47 217.875 52.4166 217.979 52.3396C218.317 52.0583 218.122 51.4435 217.733 51.2351C217.324 51.0675 216.876 51.0241 216.443 51.1101C215.082 51.2177 213.714 51.0657 212.408 50.662C211.086 50.1221 209.736 49.656 208.364 49.2657C204.053 48.4321 199.455 51.7249 195.389 50.0368C194.349 49.4463 193.275 48.9174 192.174 48.453C189.86 47.8069 187.402 49.2449 185.006 48.8073C183.112 48.4634 181.627 46.9838 180.388 45.4833C179.287 43.8773 177.897 42.4984 176.292 41.4195C174.592 40.4921 172.196 40.5755 171.069 42.1906C170.677 40.6318 170.048 39.1448 169.206 37.7829C168.782 37.1051 168.213 36.5343 167.54 36.1137C166.868 35.693 166.11 35.4336 165.325 35.355C164.63 35.4556 163.921 35.3582 163.277 35.0737C162.755 34.5399 162.452 33.8252 162.427 33.0731C162.176 31.8114 161.664 30.6187 160.924 29.5747C160.184 28.5306 159.234 27.6594 158.136 27.019C156.646 26.1554 155.033 25.5331 153.354 25.1747C152.78 25.0452 152.183 25.054 151.613 25.2005C151.042 25.3471 150.513 25.6272 150.067 26.0187C149.555 26.6856 149.079 27.3813 148.644 28.1027C148.44 28.3818 148.203 28.6338 147.937 28.853Z" fill="#F0F0F0"/>
<path d="M247.706 65.5001L247.357 65.6772C245.484 66.5525 243.313 65.8231 241.213 65.8439C239.222 65.8612 237.301 66.6 235.797 67.9279C234.916 68.7303 234.209 69.7098 233.349 70.5434C232.246 71.6042 230.925 72.4023 229.482 72.8799C228.038 73.3574 226.509 73.5025 225.004 73.3047C224.081 73.119 223.147 72.9972 222.208 72.94C219.791 72.94 217.682 74.5342 215.368 75.2532C210.248 76.8266 204.769 73.982 199.547 74.9614C196.618 75.5137 193.987 77.233 191.037 77.6185C189.225 77.8582 187.351 77.5456 185.559 78.0041C185.559 79.0461 189.43 79.3587 190.29 79.4004C192.266 79.5108 194.244 79.2167 196.106 78.5355C197.258 78.0288 198.438 77.5905 199.639 77.2226C202.619 76.514 205.609 77.6498 208.23 78.994C209.342 79.433 210.495 79.7542 211.671 79.9526C213.207 80.4007 214.651 81.1822 216.197 81.6407C219.086 82.6738 222.221 82.754 225.157 81.8699C226.888 81.2343 228.444 80.1298 230.226 79.6609C233.216 78.8689 236.37 80.0047 239.114 81.4844C240.804 82.3909 242.575 83.4746 244.47 83.2245C247.132 82.8806 248.791 80.0985 251.228 78.9731C254.444 77.4831 258.396 78.7439 261.468 80.0151C263.199 80.7971 264.99 81.4315 266.824 81.9116C268.666 82.3805 270.593 82.3805 272.435 81.9116C273.767 81.3573 275.136 80.9012 276.531 80.5466C278.211 80.2965 279.931 80.8487 281.651 80.6091C282.243 80.5115 282.826 80.3616 283.392 80.161C284.795 79.6713 286.272 79.4418 287.754 79.4837C287.883 79.5047 288.015 79.4749 288.123 79.4004C288.163 79.3543 288.192 79.2989 288.206 79.2389C288.221 79.1789 288.22 79.1163 288.205 79.0565C288.163 78.8776 288.076 78.7129 287.952 78.5794C287.828 78.4458 287.672 78.3479 287.498 78.2958C287.166 78.1993 286.82 78.1605 286.474 78.1812C284.273 78.1812 282.061 78.3375 279.859 78.5355C277.885 78.6278 275.911 78.3559 274.033 77.7332C272.64 77.3268 271.34 76.6912 269.937 76.4619C268.655 76.0622 267.562 75.1985 266.865 74.0341C265.708 72.5336 264.479 70.5955 262.41 70.46C262.01 70.487 261.608 70.4266 261.233 70.2829C260.7 70.0015 260.547 69.3138 260.383 68.7303C259.481 66.1505 257.681 63.9966 255.324 62.6763C254.539 62.1988 253.622 61.9972 252.713 62.1026C251.805 62.2081 250.955 62.6147 250.296 63.2598C249.506 64.09 248.638 64.8403 247.706 65.5001Z" fill="#F0F0F0"/>
<path d="M427.796 82.7869C435.754 82.7869 442.204 76.223 442.204 68.126C442.204 60.0289 435.754 53.465 427.796 53.465C419.839 53.465 413.389 60.0289 413.389 68.126C413.389 76.223 419.839 82.7869 427.796 82.7869Z" fill="#FFBDA7"/>
<path d="M362.404 137.336C362.326 137.338 362.25 137.321 362.18 137.286C362.111 137.252 362.05 137.201 362.004 137.138C361.962 137.085 361.93 137.024 361.911 136.958C361.892 136.892 361.886 136.823 361.893 136.755C361.901 136.687 361.922 136.621 361.955 136.562C361.988 136.502 362.033 136.45 362.086 136.408L363.295 135.439C363.402 135.354 363.538 135.315 363.674 135.331C363.809 135.348 363.932 135.419 364.017 135.528C364.101 135.637 364.139 135.776 364.123 135.913C364.106 136.051 364.037 136.177 363.93 136.262L362.721 137.231C362.63 137.301 362.518 137.338 362.404 137.336Z" fill="#F0F0F0"/>
<path d="M289.393 189.394C289.307 189.396 289.222 189.375 289.146 189.333C289.071 189.291 289.007 189.229 288.963 189.154C288.889 189.038 288.864 188.897 288.893 188.762C288.922 188.628 289.002 188.51 289.116 188.435L291.676 186.768C291.733 186.727 291.797 186.698 291.864 186.682C291.932 186.667 292.003 186.666 292.071 186.679C292.139 186.692 292.204 186.719 292.262 186.759C292.319 186.798 292.368 186.85 292.406 186.909C292.444 186.969 292.469 187.035 292.48 187.105C292.492 187.175 292.489 187.246 292.473 187.315C292.456 187.384 292.426 187.448 292.384 187.505C292.342 187.561 292.289 187.608 292.229 187.643L289.669 189.311C289.587 189.366 289.491 189.396 289.393 189.394ZM296.212 184.934C296.127 184.933 296.043 184.911 295.968 184.869C295.893 184.827 295.829 184.767 295.782 184.695C295.709 184.578 295.684 184.437 295.713 184.303C295.742 184.168 295.822 184.05 295.936 183.976L298.486 182.288C298.6 182.213 298.738 182.188 298.871 182.217C299.003 182.246 299.119 182.328 299.192 182.444C299.23 182.501 299.256 182.565 299.268 182.633C299.281 182.7 299.28 182.769 299.266 182.837C299.251 182.904 299.224 182.967 299.185 183.023C299.146 183.079 299.096 183.127 299.039 183.163L296.489 184.851C296.407 184.905 296.311 184.934 296.212 184.934ZM303.002 180.422C302.916 180.421 302.832 180.399 302.757 180.357C302.682 180.315 302.618 180.255 302.571 180.183C302.497 180.068 302.471 179.928 302.498 179.793C302.525 179.658 302.603 179.54 302.715 179.464L305.254 177.755C305.367 177.679 305.505 177.652 305.637 177.68C305.769 177.707 305.886 177.786 305.961 177.901C306.036 178.017 306.062 178.159 306.036 178.295C306.009 178.432 305.93 178.552 305.818 178.63L303.278 180.329C303.198 180.389 303.101 180.422 303.002 180.422ZM309.75 175.858C309.665 175.858 309.583 175.836 309.509 175.794C309.435 175.752 309.374 175.692 309.33 175.619C309.255 175.505 309.227 175.366 309.252 175.231C309.276 175.097 309.352 174.978 309.463 174.9L311.992 173.18C312.047 173.132 312.111 173.096 312.18 173.074C312.249 173.053 312.322 173.047 312.394 173.056C312.466 173.065 312.535 173.09 312.596 173.129C312.658 173.167 312.711 173.218 312.752 173.279C312.793 173.34 312.82 173.409 312.833 173.481C312.846 173.554 312.843 173.628 312.826 173.7C312.808 173.771 312.776 173.838 312.731 173.896C312.686 173.953 312.63 174.001 312.566 174.035L310.036 175.765C309.953 175.826 309.853 175.859 309.75 175.858ZM316.477 171.242C316.365 171.247 316.255 171.213 316.163 171.148C316.071 171.082 316.003 170.987 315.969 170.878C315.936 170.769 315.938 170.652 315.976 170.545C316.014 170.437 316.086 170.346 316.18 170.284L318.699 168.544C318.812 168.466 318.951 168.437 319.084 168.464C319.217 168.49 319.335 168.569 319.411 168.684C319.487 168.799 319.515 168.94 319.489 169.075C319.464 169.211 319.386 169.331 319.273 169.408L316.764 171.149C316.68 171.208 316.58 171.24 316.477 171.242ZM323.154 166.574C323.071 166.572 322.99 166.55 322.917 166.51C322.845 166.47 322.782 166.414 322.734 166.345C322.659 166.231 322.631 166.092 322.656 165.958C322.681 165.823 322.757 165.704 322.867 165.626L325.366 163.865C325.477 163.795 325.611 163.77 325.739 163.797C325.868 163.824 325.981 163.901 326.056 164.01C326.131 164.12 326.162 164.255 326.142 164.386C326.122 164.518 326.053 164.638 325.949 164.719L323.451 166.48C323.363 166.541 323.26 166.574 323.154 166.574ZM329.81 161.854C329.728 161.855 329.646 161.836 329.573 161.798C329.5 161.76 329.437 161.704 329.39 161.635C329.313 161.521 329.283 161.381 329.306 161.245C329.329 161.109 329.403 160.987 329.513 160.906C330.342 160.322 331.162 159.728 332.001 159.124C332.112 159.049 332.248 159.02 332.379 159.043C332.51 159.067 332.628 159.14 332.708 159.249C332.747 159.305 332.775 159.368 332.79 159.435C332.805 159.502 332.807 159.572 332.796 159.64C332.784 159.707 332.76 159.772 332.724 159.83C332.687 159.889 332.64 159.939 332.585 159.978L330.107 161.76C330.019 161.821 329.916 161.853 329.81 161.854ZM336.425 157.082C336.343 157.083 336.261 157.064 336.188 157.025C336.115 156.987 336.052 156.931 336.005 156.863C335.966 156.807 335.938 156.743 335.923 156.676C335.908 156.609 335.906 156.54 335.917 156.472C335.929 156.404 335.953 156.339 335.989 156.281C336.025 156.223 336.073 156.173 336.128 156.133C336.947 155.539 337.766 154.945 338.586 154.331C338.641 154.291 338.703 154.262 338.769 154.247C338.835 154.231 338.903 154.23 338.97 154.241C339.036 154.253 339.1 154.278 339.157 154.315C339.214 154.351 339.264 154.399 339.302 154.456C339.38 154.568 339.412 154.707 339.391 154.844C339.37 154.98 339.298 155.102 339.19 155.185L336.722 156.988C336.634 157.048 336.531 157.081 336.425 157.082ZM342.989 152.257C342.909 152.254 342.83 152.233 342.759 152.195C342.688 152.157 342.627 152.104 342.579 152.038C342.538 151.983 342.508 151.921 342.492 151.854C342.475 151.787 342.472 151.717 342.482 151.649C342.493 151.581 342.517 151.516 342.553 151.457C342.589 151.399 342.636 151.348 342.692 151.309L345.139 149.485C345.248 149.402 345.384 149.367 345.519 149.386C345.653 149.406 345.774 149.479 345.856 149.59C345.934 149.702 345.965 149.841 345.944 149.977C345.923 150.113 345.851 150.236 345.743 150.319L343.296 152.132C343.222 152.195 343.134 152.237 343.04 152.257H342.989ZM349.512 147.36C349.431 147.359 349.352 147.339 349.281 147.301C349.209 147.263 349.148 147.208 349.102 147.141C349.021 147.03 348.986 146.891 349.005 146.755C349.024 146.618 349.096 146.494 349.204 146.411L351.642 144.557C351.751 144.476 351.887 144.442 352.021 144.462C352.154 144.481 352.275 144.553 352.358 144.661C352.44 144.771 352.475 144.91 352.456 145.047C352.436 145.184 352.365 145.307 352.256 145.39L349.819 147.255C349.729 147.321 349.622 147.357 349.512 147.36ZM355.994 142.379C355.915 142.38 355.837 142.363 355.766 142.329C355.695 142.294 355.633 142.244 355.584 142.181C355.501 142.072 355.465 141.934 355.482 141.797C355.499 141.66 355.569 141.536 355.676 141.452L358.093 139.566C358.145 139.519 358.207 139.483 358.273 139.461C358.34 139.44 358.41 139.432 358.48 139.439C358.549 139.446 358.617 139.467 358.678 139.502C358.739 139.536 358.793 139.583 358.835 139.639C358.878 139.695 358.909 139.76 358.926 139.829C358.943 139.898 358.947 139.97 358.936 140.04C358.925 140.11 358.9 140.177 358.862 140.237C358.824 140.297 358.775 140.349 358.717 140.389C357.919 141.024 357.11 141.649 356.301 142.275C356.213 142.343 356.104 142.38 355.994 142.379Z" fill="#F0F0F0"/>
<path d="M283.853 192.947C283.74 192.948 283.63 192.912 283.54 192.843C283.45 192.774 283.385 192.677 283.355 192.566C283.324 192.456 283.331 192.339 283.372 192.232C283.414 192.126 283.49 192.037 283.586 191.978L284.887 191.155C285.002 191.082 285.142 191.058 285.274 191.089C285.407 191.121 285.522 191.204 285.594 191.322C285.665 191.439 285.689 191.581 285.658 191.716C285.627 191.85 285.545 191.967 285.43 192.041L284.119 192.864C284.039 192.916 283.947 192.945 283.853 192.947Z" fill="#F0F0F0"/>
<path d="M330.117 82.6202C330.035 82.6239 329.954 82.6059 329.881 82.5681C329.38 82.2972 328.929 82.0679 328.53 81.87C328.464 81.8438 328.405 81.8042 328.355 81.7536C328.305 81.7031 328.266 81.6426 328.241 81.576C328.215 81.5095 328.203 81.4382 328.205 81.3667C328.208 81.2952 328.225 81.225 328.255 81.1604C328.285 81.0958 328.328 81.0383 328.381 80.9914C328.435 80.9446 328.497 80.9093 328.564 80.8879C328.631 80.8665 328.702 80.8594 328.771 80.867C328.841 80.8746 328.909 80.8968 328.97 80.9322C329.39 81.1301 329.851 81.3698 330.352 81.6407C330.413 81.6725 330.466 81.7162 330.509 81.7692C330.553 81.8221 330.586 81.8833 330.606 81.9493C330.626 82.0152 330.633 82.0845 330.626 82.1531C330.619 82.2218 330.6 82.2885 330.568 82.3493C330.524 82.4322 330.459 82.5014 330.38 82.5492C330.3 82.597 330.209 82.6216 330.117 82.6202Z" fill="#E0E0E0"/>
<path d="M367.063 113.891C366.977 113.892 366.892 113.871 366.816 113.829C366.741 113.787 366.678 113.726 366.633 113.651C366.121 112.828 365.547 111.984 364.933 111.15C364.852 111.04 364.817 110.901 364.836 110.764C364.855 110.627 364.927 110.504 365.035 110.421C365.089 110.378 365.15 110.347 365.215 110.33C365.28 110.312 365.349 110.308 365.416 110.317C365.483 110.327 365.547 110.35 365.605 110.386C365.663 110.422 365.713 110.469 365.752 110.525C366.377 111.379 366.971 112.244 367.493 113.088C367.566 113.204 367.591 113.345 367.562 113.48C367.533 113.615 367.453 113.732 367.339 113.807C367.256 113.86 367.161 113.889 367.063 113.891ZM362.127 107.389C362.056 107.39 361.986 107.375 361.92 107.347C361.855 107.318 361.796 107.275 361.748 107.222C361.083 106.472 360.397 105.732 359.7 104.992C359.647 104.945 359.604 104.887 359.574 104.822C359.544 104.757 359.527 104.687 359.525 104.615C359.522 104.543 359.535 104.472 359.561 104.405C359.587 104.339 359.627 104.278 359.677 104.228C359.727 104.177 359.787 104.138 359.853 104.112C359.919 104.087 359.989 104.075 360.06 104.078C360.13 104.082 360.199 104.1 360.262 104.131C360.326 104.163 360.382 104.208 360.427 104.263C361.154 105.013 361.851 105.763 362.475 106.524C362.523 106.572 362.561 106.63 362.587 106.693C362.613 106.757 362.627 106.825 362.627 106.894C362.627 106.962 362.613 107.03 362.587 107.094C362.561 107.157 362.523 107.215 362.475 107.263C362.377 107.345 362.254 107.389 362.127 107.389ZM356.413 101.585C356.351 101.586 356.289 101.575 356.231 101.551C356.173 101.528 356.12 101.493 356.075 101.449C355.328 100.761 354.58 100.084 353.812 99.3651C353.718 99.266 353.665 99.1333 353.665 98.9952C353.665 98.8571 353.718 98.7244 353.812 98.6253C353.91 98.5292 354.04 98.4754 354.176 98.4754C354.312 98.4754 354.442 98.5292 354.539 98.6253C355.307 99.3026 356.065 99.9903 356.813 100.709C356.861 100.758 356.899 100.815 356.925 100.879C356.951 100.942 356.964 101.01 356.964 101.079C356.964 101.148 356.951 101.216 356.925 101.28C356.899 101.343 356.861 101.401 356.813 101.449C356.76 101.5 356.697 101.538 356.628 101.562C356.559 101.585 356.486 101.593 356.413 101.585ZM350.269 96.2704C350.153 96.2743 350.04 96.2334 349.952 96.1558C349.153 95.5201 348.365 94.8949 347.566 94.2802C347.457 94.1972 347.386 94.0738 347.366 93.937C347.347 93.8002 347.382 93.6613 347.464 93.5508C347.545 93.4402 347.666 93.3671 347.801 93.3476C347.935 93.328 348.072 93.3636 348.18 93.4466C348.989 94.0613 349.788 94.697 350.587 95.343C350.692 95.429 350.76 95.5539 350.775 95.6905C350.791 95.8272 350.752 95.9644 350.669 96.0724C350.621 96.1364 350.559 96.1879 350.488 96.2223C350.416 96.2568 350.338 96.2733 350.259 96.2704H350.269ZM343.798 91.3521C343.69 91.353 343.585 91.3162 343.501 91.2479C342.671 90.654 341.842 90.0601 341.023 89.4974C340.958 89.4633 340.902 89.4159 340.857 89.358C340.812 89.3002 340.78 89.2334 340.763 89.162C340.745 89.0906 340.743 89.0162 340.755 88.9437C340.768 88.8713 340.796 88.8024 340.836 88.7416C340.877 88.6808 340.93 88.6295 340.992 88.591C341.054 88.5526 341.123 88.5279 341.194 88.5186C341.266 88.5093 341.339 88.5155 341.408 88.537C341.478 88.5584 341.542 88.5945 341.596 88.6429C342.415 89.2056 343.255 89.7891 344.095 90.4039C344.15 90.4434 344.197 90.4936 344.233 90.5518C344.269 90.6099 344.294 90.6747 344.305 90.7426C344.317 90.8104 344.315 90.8798 344.3 90.9469C344.285 91.014 344.257 91.0773 344.217 91.1333C344.168 91.2016 344.103 91.2569 344.028 91.2949C343.953 91.3329 343.871 91.3525 343.787 91.3521H343.798ZM337.09 86.7777C336.993 86.7744 336.898 86.7457 336.814 86.6944C335.923 86.1213 335.063 85.5795 334.244 85.0793C334.18 85.047 334.124 85.0016 334.079 84.9461C334.034 84.8906 334 84.8261 333.981 84.7568C333.961 84.6875 333.956 84.6148 333.966 84.5433C333.975 84.4718 333.999 84.4032 334.036 84.3416C334.073 84.2801 334.123 84.2271 334.181 84.1859C334.239 84.1447 334.305 84.1162 334.374 84.1023C334.444 84.0884 334.516 84.0893 334.585 84.105C334.654 84.1208 334.719 84.1509 334.776 84.1936C335.595 84.6938 336.466 85.2356 337.367 85.8087C337.481 85.8834 337.561 86.0011 337.59 86.1359C337.619 86.2706 337.594 86.4115 337.521 86.5277C337.476 86.6059 337.412 86.6705 337.334 86.7145C337.257 86.7586 337.169 86.7804 337.08 86.7777H337.09Z" fill="#E0E0E0"/>
<path d="M369.92 119.882C369.81 119.883 369.704 119.848 369.615 119.782C369.527 119.716 369.461 119.624 369.428 119.517C369.285 119.049 369.111 118.569 368.927 118.09C368.891 118.025 368.869 117.954 368.863 117.88C368.857 117.806 368.866 117.732 368.89 117.662C368.914 117.592 368.953 117.528 369.003 117.474C369.053 117.421 369.114 117.379 369.182 117.351C369.249 117.324 369.322 117.311 369.395 117.314C369.468 117.317 369.539 117.336 369.604 117.37C369.669 117.403 369.726 117.45 369.772 117.508C369.817 117.566 369.85 117.633 369.869 117.704C370.074 118.205 370.248 118.746 370.411 119.205C370.45 119.337 370.437 119.48 370.373 119.603C370.31 119.725 370.203 119.818 370.073 119.861L369.92 119.882Z" fill="#E0E0E0"/>
<path d="M334.991 61.8948C335.035 60.4773 334.798 59.0653 334.295 57.7426C333.793 56.4199 333.034 55.2136 332.064 54.1951C331.094 53.1767 329.933 52.3669 328.649 51.814C327.366 51.261 325.986 50.976 324.593 50.976C323.199 50.976 321.819 51.261 320.536 51.814C319.253 52.3669 318.091 53.1767 317.121 54.1951C316.152 55.2136 315.393 56.4199 314.89 57.7426C314.387 59.0653 314.15 60.4773 314.194 61.8948V63.2703C314.194 67.9072 320.573 76.6287 323.195 79.9423C323.353 80.1328 323.549 80.287 323.77 80.3947C323.991 80.5024 324.231 80.5611 324.476 80.567C324.721 80.5729 324.965 80.5259 325.19 80.429C325.416 80.332 325.619 80.1875 325.786 80.0048C328.745 76.5141 335.002 68.251 335.002 63.2598L334.991 61.8948ZM324.608 66.3337C323.622 66.299 322.667 65.9696 321.864 65.3867C321.06 64.8038 320.443 63.9932 320.089 63.0558C319.735 62.1184 319.66 61.0957 319.873 60.1152C320.086 59.1347 320.578 58.2398 321.288 57.5419C321.997 56.8439 322.893 56.374 323.863 56.1905C324.834 56.007 325.836 56.1182 326.744 56.5101C327.653 56.902 328.428 57.5573 328.973 58.3944C329.518 59.2315 329.809 60.2133 329.81 61.2175C329.786 62.5975 329.224 63.9114 328.249 64.8706C327.274 65.8298 325.964 66.3561 324.608 66.3337Z" fill="#CA0000"/>
<path d="M371.589 120.466C371.625 119.521 371.473 118.579 371.142 117.696C370.812 116.813 370.31 116.007 369.666 115.326C369.022 114.645 368.249 114.103 367.395 113.733C366.54 113.363 365.621 113.172 364.692 113.172C363.764 113.172 362.844 113.363 361.99 113.733C361.135 114.103 360.363 114.645 359.719 115.326C359.075 116.007 358.573 116.813 358.242 117.696C357.912 118.579 357.76 119.521 357.796 120.466V121.372C357.796 124.498 361.892 130.042 363.766 132.438C363.867 132.58 363.998 132.697 364.15 132.781C364.302 132.864 364.47 132.911 364.642 132.919C364.814 132.927 364.986 132.896 365.144 132.827C365.303 132.758 365.444 132.654 365.558 132.522C367.452 130.073 371.589 124.686 371.589 121.372V120.466ZM364.687 123.415C364.032 123.392 363.398 123.174 362.864 122.787C362.33 122.4 361.92 121.862 361.685 121.24C361.449 120.618 361.399 119.939 361.54 119.287C361.681 118.636 362.008 118.042 362.479 117.578C362.95 117.114 363.545 116.802 364.189 116.68C364.833 116.558 365.499 116.632 366.102 116.892C366.706 117.152 367.22 117.587 367.582 118.143C367.945 118.699 368.138 119.351 368.138 120.018C368.122 120.933 367.75 121.805 367.103 122.442C366.456 123.079 365.587 123.428 364.687 123.415Z" fill="#4F3737"/>
<path d="M327.526 151.194C327.526 149.658 326.927 148.184 325.859 147.098C324.791 146.011 323.343 145.401 321.833 145.401C320.323 145.401 318.875 146.011 317.807 147.098C316.739 148.184 316.14 149.658 316.14 151.194V151.944C316.14 154.487 319.693 159.603 321.075 161.083C321.156 161.193 321.261 161.282 321.382 161.344C321.503 161.405 321.636 161.437 321.772 161.437C321.907 161.437 322.04 161.405 322.161 161.344C322.282 161.282 322.387 161.193 322.468 161.083C323.881 159.468 327.526 154.674 327.526 151.934V151.194ZM321.833 153.633C321.292 153.614 320.769 153.434 320.329 153.115C319.888 152.796 319.549 152.352 319.355 151.839C319.16 151.325 319.119 150.765 319.235 150.227C319.352 149.69 319.621 149.199 320.01 148.817C320.398 148.434 320.889 148.176 321.421 148.076C321.952 147.975 322.501 148.035 322.999 148.25C323.497 148.465 323.922 148.824 324.221 149.282C324.52 149.741 324.679 150.279 324.68 150.83C324.666 151.585 324.359 152.304 323.825 152.83C323.292 153.355 322.575 153.644 321.833 153.633Z" fill="#4F3737"/>
<path d="M288.01 179.026C288.01 177.904 287.572 176.828 286.793 176.035C286.013 175.241 284.955 174.796 283.853 174.796C282.75 174.796 281.693 175.241 280.913 176.035C280.133 176.828 279.695 177.904 279.695 179.026V179.568C279.695 181.433 282.163 184.778 283.3 186.247C283.352 186.338 283.427 186.413 283.517 186.465C283.607 186.518 283.708 186.545 283.812 186.545C283.915 186.545 284.017 186.518 284.107 186.465C284.197 186.413 284.271 186.338 284.324 186.247C285.399 184.965 288.051 181.569 288.051 179.568L288.01 179.026ZM283.853 180.797C283.448 180.797 283.052 180.675 282.715 180.446C282.378 180.217 282.116 179.892 281.961 179.511C281.806 179.13 281.765 178.711 281.844 178.307C281.923 177.903 282.118 177.531 282.405 177.24C282.691 176.948 283.056 176.75 283.453 176.669C283.85 176.589 284.262 176.63 284.636 176.788C285.011 176.946 285.331 177.213 285.556 177.556C285.781 177.898 285.901 178.301 285.901 178.713C285.901 179.266 285.685 179.796 285.301 180.187C284.917 180.578 284.396 180.797 283.853 180.797Z" fill="#4F3737"/>
<path d="M344.392 206.806C344.42 206.232 344.333 205.658 344.136 205.119C343.94 204.581 343.637 204.088 343.248 203.672C342.859 203.256 342.391 202.924 341.872 202.698C341.353 202.471 340.794 202.355 340.229 202.355C339.664 202.355 339.106 202.471 338.587 202.698C338.068 202.924 337.599 203.256 337.21 203.672C336.821 204.088 336.519 204.581 336.322 205.119C336.125 205.658 336.039 206.232 336.067 206.806V207.358C336.067 209.223 338.534 212.568 339.671 214.037C339.947 214.392 340.398 214.537 340.562 214.329C341.535 213.11 344.392 209.359 344.392 207.358V206.806ZM340.234 208.577C339.829 208.577 339.433 208.455 339.096 208.226C338.76 207.997 338.497 207.671 338.342 207.291C338.187 206.91 338.147 206.491 338.226 206.087C338.305 205.682 338.5 205.311 338.786 205.02C339.072 204.728 339.437 204.53 339.835 204.449C340.232 204.369 340.644 204.41 341.018 204.568C341.392 204.726 341.712 204.993 341.937 205.335C342.162 205.678 342.282 206.081 342.282 206.493C342.282 207.046 342.066 207.576 341.682 207.967C341.298 208.358 340.777 208.577 340.234 208.577Z" fill="#FAFAFA"/>
<path opacity="0.15" d="M271.503 463.263L278.835 468.9L249.856 495.19L204.861 498.962L159.549 491.22L119.173 500.337L91.3101 474.548L49.7255 471.036L19.4561 447.216L43.4074 417.384C43.4074 417.384 141.865 413.216 141.978 413.539C142.09 413.862 202.394 442.412 202.394 442.412L255.795 451.957L271.503 463.263Z" fill="black"/>
<path d="M47.7185 378.059C49.7665 388.479 47.0836 401.795 47.0836 401.795L49.2852 400.493C50.8417 385.832 47.7185 378.059 47.7185 378.059Z" fill="#CA0000"/>
<path opacity="0.15" d="M47.7185 378.059C49.7665 388.479 47.0836 401.795 47.0836 401.795L49.2852 400.493C50.8417 385.832 47.7185 378.059 47.7185 378.059Z" fill="black"/>
<path opacity="0.15" d="M48.2202 401.024C48.2202 401.024 48.2202 401.097 48.2202 401.139L49.3056 400.493C50.8621 385.832 47.7389 378.059 47.7389 378.059C49.449 383.112 49.3363 395.324 48.2202 401.024Z" fill="black"/>
<path d="M47.1042 401.795C46.4272 395.737 44.9388 389.802 42.6805 384.154C39.1682 375.985 34.7548 372.338 34.7548 372.338C34.7548 372.338 40.1512 374.849 44.5749 383.623C47.2057 388.807 49.0296 394.375 49.9816 400.128L47.1042 401.795Z" fill="#CA0000"/>
<path opacity="0.2" d="M47.1042 401.795C46.4272 395.737 44.9388 389.802 42.6805 384.154C39.1682 375.985 34.7548 372.338 34.7548 372.338C34.7548 372.338 40.1512 374.849 44.5749 383.623C47.2057 388.807 49.0296 394.375 49.9816 400.128L47.1042 401.795Z" fill="black"/>
<path opacity="0.1" d="M48.5991 400.899L49.9815 400.097C49.0199 394.353 47.1891 388.796 44.5543 383.623C40.1306 374.849 34.7341 372.338 34.7341 372.338C39.9975 375.787 47.0119 387.093 48.5991 400.899Z" fill="black"/>
<path d="M47.104 401.795C47.104 401.795 45.5578 394.001 36.0551 387.509C41.8475 390.098 46.5449 394.7 49.3056 400.493L47.104 401.795Z" fill="#CA0000"/>
<path opacity="0.1" d="M48.2202 401.024V401.108L49.2442 400.493C46.4835 394.7 41.7861 390.098 35.9937 387.509C40.4481 390.114 45.8343 394.532 48.2202 401.024Z" fill="black"/>
<path d="M247.654 423.385C246.036 431.805 248.166 442.517 248.166 442.517L246.385 441.475C245.125 429.648 247.654 423.385 247.654 423.385Z" fill="#CA0000"/>
<path opacity="0.15" d="M247.654 423.385C246.036 431.805 248.166 442.517 248.166 442.517L246.385 441.475C245.125 429.648 247.654 423.385 247.654 423.385Z" fill="black"/>
<path opacity="0.15" d="M247.245 441.891C247.245 441.891 247.245 441.954 247.245 441.985L246.364 441.464C245.105 429.648 247.634 423.385 247.634 423.385C246.252 427.46 246.344 437.296 247.245 441.891Z" fill="black"/>
<path d="M248.166 442.517C248.705 437.621 249.904 432.824 251.73 428.262C254.556 421.687 258.12 418.749 258.12 418.749C258.12 418.749 253.757 420.76 250.194 427.835C248.072 432.003 246.601 436.481 245.832 441.11L248.166 442.517Z" fill="#CA0000"/>
<path opacity="0.2" d="M248.166 442.517C248.705 437.621 249.904 432.824 251.73 428.262C254.556 421.687 258.12 418.749 258.12 418.749C258.12 418.749 253.757 420.76 250.194 427.835C248.072 432.003 246.601 436.481 245.832 441.11L248.166 442.517Z" fill="black"/>
<path opacity="0.1" d="M246.938 441.808L245.832 441.152C246.601 436.523 248.072 432.045 250.194 427.877C253.757 420.802 258.12 418.791 258.12 418.791C253.87 421.552 248.218 430.669 246.938 441.808Z" fill="black"/>
<path d="M248.166 442.517C248.166 442.517 249.405 436.265 257.065 431.003C252.406 433.081 248.621 436.773 246.385 441.423L248.166 442.517Z" fill="#CA0000"/>
<path opacity="0.1" d="M247.245 441.891V441.964L246.415 441.464C248.652 436.815 252.436 433.123 257.096 431.044C253.512 433.097 249.17 436.661 247.245 441.891Z" fill="black"/>
<path d="M269.711 456.615L270.653 468.077L242.688 491.366L202.568 493.575L157.256 485.457L128.819 494.658C128.819 494.658 97.28 470.984 96.256 470.328C95.232 469.671 51.9373 459.991 51.9373 459.991L28.6925 442.517L41.513 404.119L269.711 456.615Z" fill="#644545"/>
<path d="M157.235 485.457L153.457 466.493L133.99 463.628L128.799 494.658L157.235 485.457Z" fill="#382626"/>
<path d="M128.799 494.658L133.99 463.628L108.821 421.104L96.297 470.328L128.799 494.658Z" fill="#4F3737"/>
<path d="M242.678 491.366L202.547 493.575L200.561 442.517L231.066 449.633L242.678 491.366Z" fill="#4F3737"/>
<path d="M202.547 493.575L155.976 479.143L157.235 485.457L202.547 493.575Z" fill="#4F3737"/>
<path d="M269.711 456.615L242.678 491.366L270.653 468.046L269.711 456.615Z" fill="#4F3737"/>
<path d="M51.9783 459.991L65.0445 410.881L80.7015 414.539L87.2756 468.046L51.9783 459.991Z" fill="#4F3737"/>
<path d="M51.9783 459.991L65.0446 410.881L41.554 404.119L28.7335 442.517L51.9783 459.991Z" fill="#382626"/>
<path d="M271.708 456.292C268.247 450.04 265.339 447.81 260.915 444.257C260.915 444.257 235.602 436.754 234.844 436.338C234.086 435.921 176.589 425.136 176.589 425.136L110.142 392.032H60.5492C50.4833 394.522 41.2263 399.951 39.7005 401.889L39.3319 404.546L45.0049 413.924L62.7303 420.937L82.0737 431.388L103.782 442.162L132.885 470.744H153.365L201.493 480.049L240.517 475.631C253.512 469.702 266.916 463.732 271.299 458.959L271.708 456.292Z" fill="#CA0000"/>
<path opacity="0.2" d="M271.708 456.292C268.247 450.04 265.339 447.81 260.915 444.257C260.915 444.257 235.602 436.754 234.844 436.338C234.086 435.921 176.589 425.136 176.589 425.136L110.142 392.032H60.5492C50.4833 394.522 41.2263 399.951 39.7005 401.889L39.3319 404.546L45.0049 413.924L62.7303 420.937L82.0737 431.388L103.782 442.162L132.885 470.744H153.365L201.493 480.049L240.517 475.631C253.512 469.702 266.916 463.732 271.299 458.959L271.708 456.292Z" fill="black"/>
<path opacity="0.1" d="M62.4128 420.749L63.0989 418.207L82.4423 428.7L82.8519 431.753L62.4128 420.749Z" fill="black"/>
<path opacity="0.2" d="M63.0989 418.207L45.3735 411.205L39.7005 401.837L39.3319 404.494L45.0049 413.872L62.4129 420.749L63.0989 418.207Z" fill="black"/>
<path opacity="0.1" d="M45.0049 413.872L45.3735 411.205L39.7005 401.837L39.3319 404.494L45.0049 413.872Z" fill="black"/>
<path opacity="0.1" d="M104.151 439.464L103.782 442.131L132.885 470.713L133.253 468.046L104.151 439.464Z" fill="black"/>
<path opacity="0.2" d="M153.395 470.713L153.764 468.046H133.253L132.885 470.713H153.395Z" fill="black"/>
<path opacity="0.2" d="M201.544 480.018L201.912 477.351L240.937 472.933L240.568 475.6L201.544 480.018Z" fill="black"/>
<path d="M60.5492 391.98C50.4833 394.47 41.2263 399.899 39.7006 401.837L45.3735 411.215L63.099 418.217L82.4423 428.71L104.151 439.474L133.253 468.056H153.733L201.861 477.361L240.886 472.943C253.87 467.024 267.274 461.043 271.606 456.271C268.145 450.019 265.237 447.789 260.813 444.236C260.813 444.236 235.5 436.734 234.742 436.317C233.984 435.9 176.589 425.136 176.589 425.136L110.142 392.032L60.5492 391.98Z" fill="#CA0000"/>
<path opacity="0.1" d="M60.5492 391.98C50.4833 394.47 41.2263 399.899 39.7006 401.837L45.3735 411.215L63.099 418.217L82.4423 428.71L104.151 439.474L133.253 468.056H153.733L201.861 477.361L240.886 472.943C253.87 467.024 267.274 461.043 271.606 456.271C268.145 450.019 265.237 447.789 260.813 444.236C260.813 444.236 235.5 436.734 234.742 436.317C233.984 435.9 176.589 425.136 176.589 425.136L110.142 392.032L60.5492 391.98Z" fill="white"/>
<path d="M257.26 449.175L242.401 459.991L216.463 460.064L184.32 466.493L147.845 457.834L125.42 438.63L156.221 421.687L210.319 375.954L217.446 394.314L226.396 394.658L228.403 409.381L240.241 422.239L242.678 436.348L257.26 449.175Z" fill="#644545"/>
<path d="M210.319 375.954L217.446 394.314L198.584 385.873L210.319 375.954Z" fill="#382626"/>
<path d="M242.401 459.991L242.678 436.348L240.241 422.239L216.463 460.064L242.401 459.991Z" fill="#4F3737"/>
<path d="M228.403 409.381V423.375L219.085 437.828L216.463 460.064L209.961 431.326L224.051 420.749L228.403 409.381Z" fill="#4F3737"/>
<path d="M209.961 431.326L198.328 453.968L184.32 466.493L216.463 460.064L209.961 431.326Z" fill="#382626"/>
<path d="M198.328 453.968L179.261 443.892L147.845 457.834L184.32 466.493L198.328 453.968Z" fill="#4F3737"/>
<path d="M209.961 431.326L216.463 416.154L213.217 408.714L190.249 420.02L198.328 453.968L209.961 431.326Z" fill="#4F3737"/>
<path d="M147.845 457.834L153.764 423.042L125.42 438.63L147.845 457.834Z" fill="#382626"/>
<path d="M179.261 443.892L175.083 421.843L153.764 423.042L147.845 457.834L179.261 443.892Z" fill="#4F3737"/>
<path d="M179.261 443.892L163.553 461.564L147.845 457.834L179.261 443.892Z" fill="#382626"/>
<path d="M229.571 394.658C229.571 394.658 221.645 387.916 207.37 384.019L213.955 379.559L213.228 377.037C213.228 377.037 206.551 372.942 191.007 369.587L179.261 386.582L152.515 394.272L137.902 407.818L115.149 406.932L125.389 438.599L153.702 429.971H176.845L193.229 431.909L221.993 413.372L230.318 397.148L229.571 394.658Z" fill="#CA0000"/>
<path opacity="0.2" d="M229.571 394.658C229.571 394.658 221.645 387.916 207.37 384.019L213.955 379.559L213.228 377.037C213.228 377.037 206.551 372.942 191.007 369.587L179.261 386.582L152.515 394.272L137.902 407.818L115.149 406.932L116.419 410.85L125.42 438.682L153.733 430.054H176.876L193.26 431.992L222.024 413.455L230.349 397.231L229.571 394.658Z" fill="black"/>
<path opacity="0.2" d="M213.228 377.037L213.955 379.559L207.37 384.029L204.124 383.216L213.228 377.037Z" fill="black"/>
<path d="M204.114 383.216L213.228 377.037C213.228 377.037 206.551 372.942 191.007 369.587L179.261 386.582L152.515 394.272L137.902 407.818L116.398 410.85L125.42 438.682L153.006 427.522H176.128L192.512 429.419L221.276 410.882L229.601 394.658C229.601 394.658 220.436 386.884 204.114 383.216Z" fill="#CA0000"/>
<path opacity="0.1" d="M204.114 383.216L213.228 377.037C213.228 377.037 206.551 372.942 191.007 369.587L179.261 386.582L152.515 394.272L137.902 407.818L116.398 410.85L125.42 438.682L153.006 427.522H176.128L192.512 429.419L221.276 410.882L229.601 394.658C229.601 394.658 220.436 386.884 204.114 383.216Z" fill="white"/>
<path opacity="0.2" d="M221.245 410.881L221.962 413.403L193.208 431.94L192.481 429.419L221.245 410.881Z" fill="black"/>
<path opacity="0.2" d="M153.733 430.002L153.006 427.481L125.42 438.63L153.733 430.002Z" fill="black"/>
<path opacity="0.2" d="M121.528 417.998L146.002 416.404L138.301 407.568L110.141 393.543H60.5491C58.5011 394.043 56.5658 394.658 54.6816 395.335L51.6096 407.078L67.1437 416.3L90.3168 425.199L121.528 417.998Z" fill="black"/>
<path d="M205.394 373.599V373.609L192.246 392.647L162.345 401.253L146.002 416.404L120.545 415.414L90.9722 421.291L55.4087 404.63L64.7783 349.216L184.955 337.962L189.891 358.313L199.793 360.595L205.394 373.599Z" fill="#644545"/>
<path d="M146.002 416.404L124.733 387.113L123.095 365.575L114.514 395.981L120.545 415.414L146.002 416.404Z" fill="#4F3737"/>
<path d="M96.4404 401.639L90.9722 421.302L68.5876 412.215L67.113 385.842L77.1482 367.503L104.131 381.497L96.4404 401.639Z" fill="#4F3737"/>
<path d="M55.4189 404.629L68.5876 412.215L67.113 385.842L77.1482 368.535L64.7783 349.216L55.4189 404.629Z" fill="#382626"/>
<path d="M120.545 415.414L114.514 395.981L123.095 365.575L104.131 381.497L96.4403 401.639L90.9722 421.301L120.545 415.414Z" fill="#382626"/>
<path d="M176.835 372.974L186.112 365.992L189.891 358.313L184.955 337.962L174.684 351.258L176.835 372.974Z" fill="#4F3737"/>
<path d="M162.345 401.253L176.835 372.974L174.684 351.258L163.707 358.177L162.345 401.253Z" fill="#382626"/>
<path d="M176.835 372.974L182.282 383.133L205.394 373.599L199.803 360.595L176.835 372.974Z" fill="#4F3737"/>
<path d="M192.256 392.657L182.282 383.133L205.394 373.599L192.256 392.657Z" fill="#382626"/>
<path d="M127.252 395.814C126.515 405.38 130.222 415.789 130.222 415.789H128.113C125.235 402.816 127.252 395.814 127.252 395.814Z" fill="#CA0000"/>
<path opacity="0.15" d="M127.252 395.814C126.515 405.38 130.222 415.789 130.222 415.789H128.113C125.235 402.816 127.252 395.814 127.252 395.814Z" fill="black"/>
<path opacity="0.15" d="M129.116 415.758H128.092C125.215 402.785 127.232 395.783 127.232 395.783C126.218 400.524 127.549 410.798 129.116 415.758Z" fill="black"/>
<path d="M130.222 415.758C130.245 410.664 130.976 405.598 132.393 400.712C134.717 393.032 138.301 389.302 138.301 389.302C138.301 389.302 133.714 392.115 130.642 400.43C128.807 405.341 127.733 410.512 127.457 415.758H130.222Z" fill="#CA0000"/>
<path opacity="0.5" d="M130.222 415.758C130.245 410.664 130.976 405.598 132.393 400.712C134.717 393.032 138.301 389.302 138.301 389.302C138.301 389.302 133.714 392.115 130.642 400.43C128.807 405.341 127.733 410.512 127.457 415.758H130.222Z" fill="white"/>
<path opacity="0.1" d="M128.768 415.758H127.457C127.733 410.512 128.807 405.341 130.642 400.43C133.714 392.094 138.301 389.302 138.301 389.302C133.939 392.98 128.788 403.254 128.768 415.758Z" fill="black"/>
<path d="M130.222 415.758C130.222 415.758 130.816 409.839 138.67 403.035C133.718 405.792 129.954 410.329 128.113 415.758H130.222Z" fill="#CA0000"/>
<path opacity="0.1" d="M129.116 415.758H128.092C129.934 410.329 133.698 405.792 138.65 403.035C134.973 405.849 130.601 409.725 129.116 415.758Z" fill="black"/>
<path d="M189.737 336.795C183.192 332.921 176.429 329.442 169.482 326.375L137.308 319.894L84.4391 326.98C84.4391 326.98 69.6935 336.566 62.3412 348.976V352.029L73.5437 370.264L104.131 381.497L137.759 369.389L163.267 368.17L183.081 357.146V354.092L181.658 348.726L189.737 339.848V336.795Z" fill="#CA0000"/>
<path opacity="0.1" d="M189.737 336.795C183.192 332.921 176.429 329.442 169.482 326.375L137.308 319.894L84.4391 326.98C84.4391 326.98 69.6935 336.566 62.3412 348.976V352.029L73.5437 370.264L104.131 381.497L137.759 369.389L163.267 368.17L183.081 357.146V354.092L181.658 348.726L189.737 339.848V336.795Z" fill="black"/>
<path d="M62.3412 348.976L73.5437 367.211L104.131 378.434L137.759 366.336L163.267 365.117L183.081 354.092L180.951 346.225L189.737 336.847C183.192 332.973 176.429 329.494 169.482 326.427L137.308 319.894L84.4391 326.98C84.4391 326.98 69.6935 336.566 62.3412 348.976Z" fill="#CA0000"/>
<path opacity="0.2" d="M62.3412 348.976L73.5437 367.211L104.131 378.434L137.759 366.336L163.267 365.117L183.081 354.092L180.951 346.225L189.737 336.847C183.192 332.973 176.429 329.494 169.482 326.427L137.308 319.894L84.4391 326.98C84.4391 326.98 69.6935 336.566 62.3412 348.976Z" fill="white"/>
<path opacity="0.2" d="M189.737 336.795L180.951 346.225L181.658 348.726L189.737 339.848V336.795Z" fill="black"/>
<path opacity="0.2" d="M163.267 368.17V365.117L137.759 366.336V369.389L163.267 368.17Z" fill="black"/>
<path opacity="0.1" d="M137.759 366.336L104.131 378.444V381.497L137.759 369.389V366.336Z" fill="black"/>
<path opacity="0.3" d="M73.5437 370.264V367.211L62.3412 348.976V352.029L73.5437 370.264Z" fill="black"/>
<path d="M202.506 362.043L197.417 358.177L189.891 358.313L186.112 365.992L176.835 372.974L203.837 367.253L202.506 362.043Z" fill="#CA0000"/>
<path opacity="0.2" d="M202.506 362.043L203.837 367.253L176.835 372.974L193.761 365.763L202.506 362.043Z" fill="black"/>
<path d="M189.891 358.313L186.112 365.992L176.835 372.974L197.909 365.575L202.506 362.043L197.417 358.177L189.891 358.313Z" fill="#CA0000"/>
<path opacity="0.1" d="M189.891 358.313L186.112 365.992L176.835 372.974L197.909 365.575L202.506 362.043L197.417 358.177L189.891 358.313Z" fill="white"/>
<path opacity="0.15" d="M82.1761 337.139C68.0653 344.152 66.4781 351.071 79.1041 357.375C91.73 363.679 119.235 361.928 132.885 361.449C146.709 360.959 154.952 360.063 161.086 359.052C167.864 357.948 183.931 351.936 176.261 347.497C167.434 342.38 146.34 346.246 131.973 343.475C117.606 340.703 117.914 335.962 108.309 333.846C99.4811 331.935 90.2787 333.095 82.1761 337.139Z" fill="black"/>
<path d="M154.112 326.417C151.849 324.781 150.016 324.145 149.678 325.375C149.34 326.604 150.026 330.335 150.026 330.335L151.224 333.721L151.398 336.774C151.398 336.774 152.146 338.598 152.187 338.733C152.228 338.869 154.44 333.721 154.44 333.721C154.44 333.721 157.266 328.053 154.112 326.417Z" fill="black"/>
<path d="M95.826 322.259C95.826 322.259 109.138 300.075 115.866 286.831C120.832 277.057 121.242 275.192 122.286 268.898C124.529 255.352 125.061 252.226 125.061 252.226L130.468 279.1C129.925 282.069 128.809 287.946 128.901 291.374C129.234 298.054 130.073 304.697 131.41 311.245C132.726 318.628 134.435 325.933 136.53 333.127C137.615 333.815 140.698 333.815 143.36 333.617C145.95 333.339 148.498 332.744 150.948 331.846C150.948 331.846 151.767 299.846 151.91 291.051C152.064 280.496 152.105 276.349 152.187 270.555C152.31 261.323 152.986 247.933 151.89 231.032C149.699 197.407 141.496 182.381 141.496 182.381L103.076 178.838C100.403 190.3 93.8599 191.936 93.8599 207.441C93.8599 210.963 96.0206 217.861 96.3278 223.301C97.3518 241.015 100.106 268.68 100.106 268.68C96.082 272.712 93.1636 276.328 90.6548 285.352C89.0881 290.906 84.347 308.432 82.9441 313.34C88.8219 314.684 95.826 322.259 95.826 322.259Z" fill="#644545"/>
<path d="M129.915 202.377L128.891 202.273C128.266 208.41 127.109 215.392 126.321 215.975C124.969 217.017 119.798 217.997 118.62 217.757C117.443 217.517 116.367 216.621 114.176 213.912C112.63 212.016 112.732 210.786 112.957 208.077C113.05 207.035 113.142 205.92 113.172 204.482H112.148C112.148 205.889 112.026 207.014 111.944 208.014C111.718 210.734 111.575 212.37 113.388 214.6C115.763 217.528 116.941 218.507 118.436 218.768C118.651 218.787 118.866 218.787 119.081 218.768C121.129 218.768 125.583 217.726 126.925 216.757C128.461 215.694 129.608 205.482 129.915 202.377Z" fill="#4F3737"/>
<path d="M146.258 203.013L145.234 203.336C148.572 213.547 147.61 220.8 142.561 223.905C141.253 216.572 139.582 209.31 137.554 202.148L136.53 202.429C143.503 227.021 145.07 246.558 145.336 270.159C145.541 288.103 145.746 318.967 145.838 333.284L146.862 333.065C146.77 318.654 146.565 287.998 146.36 270.139C146.186 254.196 145.398 240.066 142.766 224.989C148.603 221.738 149.842 213.954 146.258 203.013Z" fill="#4F3737"/>
<path d="M94.505 212.37C95.1635 212.96 95.9492 213.385 96.7987 213.61C98.4166 213.61 100.987 211.213 101.673 209.442C101.982 208.429 102.15 207.377 102.175 206.316C102.259 204.743 102.478 203.181 102.83 201.648L101.806 201.408C101.441 202.993 101.211 204.607 101.12 206.233C101.1 207.199 100.955 208.159 100.69 209.088C100.168 210.484 97.9149 212.568 96.8397 212.568C95.8459 212.113 94.9512 211.462 94.208 210.651C94.2694 211.161 94.4026 211.859 94.505 212.37Z" fill="#4F3737"/>
<path d="M114.534 224.03C115.026 237.899 113.398 263.803 112.128 271.566C111.104 278.214 95.6109 308.099 90.624 317.56L91.4432 318.216C96.3379 308.89 111.985 278.672 113.111 271.733C114.381 263.939 116.019 237.92 115.528 223.988L114.534 224.03Z" fill="#4F3737"/>
<path d="M107.909 199.324C105.493 203.544 104.233 210.786 107.909 218.539L108.831 218.091C105.318 210.713 106.506 203.836 108.78 199.845L107.909 199.324Z" fill="#4F3737"/>
<path d="M125.061 252.216L119.675 224.03C119.675 224.03 108.872 222.988 106.947 213.068C106.947 219.028 109.558 224.03 116.347 226.479L122.819 252.424L122.286 268.93L125.061 252.216Z" fill="#4F3737"/>
<path d="M176.23 347.163C176.865 347.059 176.916 349.487 176.742 350.289C176.568 351.092 174.152 353.915 169.574 355.166C164.997 356.416 157.911 355.791 155.167 355.853C152.422 355.916 149.832 357.364 146.043 358.094C142.664 358.74 138.015 358.146 136.325 356.687C136.015 356.352 135.782 355.951 135.642 355.513C135.503 355.075 135.459 354.612 135.516 354.155C135.455 352.363 135.598 351.988 135.803 351.988L176.23 347.163Z" fill="#382626"/>
<path d="M135.506 348.028C135.304 349.767 135.39 351.528 135.762 353.238C136.417 354.541 138.23 355.166 139.479 355.457C142.797 356.218 145.254 355.874 148.787 354.936C151.061 354.231 153.416 353.828 155.791 353.738C158.628 353.738 162.55 353.957 165.356 353.488C167.744 353.201 170.075 352.544 172.268 351.54C174.09 350.602 175.852 349.456 176.251 347.497C176.273 346.193 175.899 344.914 175.178 343.835C174.458 342.757 173.426 341.932 172.227 341.474C170.097 340.432 167.404 340.567 165.059 340.505C162.11 340.432 161.014 340.682 158.014 340.046C156.437 339.713 154.255 340.484 153.436 338.775C152.463 336.754 152.975 332.804 152.556 330.647C152.542 330.468 152.49 330.294 152.406 330.136C152.321 329.978 152.205 329.84 152.064 329.731C151.614 329.48 151.04 329.814 150.671 330.126C148.775 331.498 146.584 332.387 144.282 332.721C137.964 333.867 136.09 331.679 136.09 331.679L135.711 330.345C135.711 330.345 134.339 330.647 134.984 333.68C135.553 336.174 135.896 338.717 136.008 341.276C136.139 343.539 135.97 345.81 135.506 348.028Z" fill="#4F3737"/>
<path d="M163.922 340.484C166.216 341.411 165.755 345.475 165.755 345.475C163.311 346.008 160.794 346.092 158.321 345.725C154.061 344.85 152.177 342.036 152.085 338.514C151.992 334.993 154.214 330.71 154.808 329.293C155.068 328.812 155.14 328.249 155.011 327.717C154.882 327.184 154.561 326.72 154.112 326.417C156.16 327.667 156.314 329.084 155.74 330.793C155.167 332.502 154.235 336.003 154.665 337.347C155.095 338.692 158.526 340.286 163.922 340.484Z" fill="#382626"/>
<path d="M96.1844 320.936C97.4439 322.77 98.857 324.062 95.2423 326.469C92.457 328.324 92.2727 329.824 91.392 331.814C90.5114 333.805 90.665 337.816 90.665 337.816C90.665 337.816 85.9546 330.439 87.378 325.729C88.8013 321.019 96.1844 320.936 96.1844 320.936Z" fill="#382626"/>
<path d="M80.896 316.58C79.9949 317.893 77.9162 319.008 76.1959 320.082C74.9773 320.832 73.728 321.572 73.3594 322.968C73.3594 323.124 74.0659 324.01 74.0455 324.166C73.9772 324.861 73.9979 325.561 74.1069 326.25C74.3629 328.636 75.6327 330.418 75.8887 332.794C75.9742 333.741 76.1387 334.678 76.3802 335.597C76.5751 336.718 76.6574 337.856 76.6259 338.994C76.6874 340.182 76.7591 341.38 76.8103 342.568C76.8616 343.067 76.8581 343.57 76.8 344.068C76.6874 344.569 84.6029 348.695 87.7875 350.32C87.9719 350.414 88.1562 350.487 88.361 350.57C90.3098 351.12 92.3889 350.928 94.208 350.029C100.608 347.726 100.229 345.371 100.229 345.371C100.229 345.371 100.444 342.662 97.2186 340.807C96.8365 340.574 96.4315 340.382 96.0103 340.234H95.9488C94.3656 339.622 92.6364 339.516 90.9927 339.932C90.6861 338.967 90.5475 337.955 90.5831 336.941C90.4755 335.422 90.4755 333.897 90.5831 332.377C90.8787 330.655 91.5467 329.021 92.5389 327.594C93.9008 325.698 95.3856 323.312 96.3175 321.947C97.3415 320.78 97.4951 317.414 92.2215 313.507C87.1629 309.776 83.4253 310.516 82.6983 312.058C82.2703 313.631 81.6655 315.148 80.896 316.58Z" fill="#4F3737"/>
<path d="M94.3924 342.245C93.9793 341.145 93.1854 340.237 92.1601 339.692C91.7802 339.729 91.4037 339.795 91.0337 339.89C91.6686 340.515 93.9623 341.432 94.3924 342.245Z" fill="#382626"/>
<path d="M72.5607 324.354C71.1373 324.948 72.5607 328.876 73.6461 332.606C74.7316 336.337 75.2128 337.608 74.8544 340.734C74.496 343.86 74.2708 345.298 75.602 346.402C76.9332 347.507 87.378 351.894 87.378 351.894C85.8573 348.177 84.9508 344.23 84.6951 340.213C84.2036 333.294 83.5789 328.845 80.2202 325.802C79.162 324.933 77.9077 324.345 76.5705 324.092C75.2332 323.839 73.8552 323.929 72.5607 324.354Z" fill="#CA0000"/>
<path opacity="0.4" d="M72.5607 324.354C71.1373 324.948 72.5607 328.876 73.6461 332.606C74.7316 336.337 75.2128 337.608 74.8544 340.734C74.496 343.86 74.2708 345.298 75.602 346.402C76.9332 347.507 87.378 351.894 87.378 351.894C85.8573 348.177 84.9508 344.23 84.6951 340.213C84.2036 333.294 83.5789 328.845 80.2202 325.802C79.162 324.933 77.9077 324.345 76.5705 324.092C75.2332 323.839 73.8552 323.929 72.5607 324.354Z" fill="black"/>
<path d="M100.27 345.329C100.096 346.673 96.2868 349.393 91.8016 349.31C87.3165 349.226 86.9479 348.268 86.2823 342.901C85.6167 337.535 85.1968 330.137 82.944 326.938C80.6912 323.739 77.7216 321.843 73.3389 322.968C72.8372 323.208 71.4752 324.573 71.977 325.865C71.977 325.865 71.977 324.823 73.769 324.333C75.305 323.895 77.138 323.958 79.6877 326.219C82.6676 328.876 83.2922 335.045 83.5994 340.348C83.9066 345.652 84.3367 351.81 88.6477 352.29C92.856 352.596 97.0125 351.195 100.209 348.393C100.474 347.392 100.495 346.34 100.27 345.329Z" fill="#382626"/>
<path d="M108.544 126.676C102.636 126.676 96.338 128.427 89.7537 138.544C84.7977 146.155 80.7516 154.341 77.7012 162.927C76.3597 166.939 73.1137 173.92 75.9092 176.598C78.7047 179.276 92.6004 178.047 97.9457 173.003C103.291 167.96 105.636 146.484 105.636 146.484L108.544 126.676Z" fill="#FFBDA7"/>
<path d="M183.685 142.91C189 140.014 183.921 131.344 179.835 123.112C173.21 109.827 167.025 100.063 163.359 95.9265C161.485 93.8425 156.887 91.0604 153.201 89.3932C151.306 88.5283 150.272 87.7885 148.306 87.8094C146.033 87.8094 143.565 87.601 140.534 87.528C138.107 87.3456 135.67 87.3456 133.243 87.528C132.858 87.5314 132.491 87.6886 132.219 87.9657C132.129 88.1241 132.082 88.3037 132.082 88.4867C132.082 88.6696 132.129 88.8492 132.219 89.0077C132.409 89.3241 132.668 89.5915 132.977 89.7892C133.573 90.23 134.228 90.581 134.922 90.8312C134.632 90.9905 134.385 91.2222 134.206 91.5046C134.027 91.787 133.921 92.111 133.898 92.4463C133.898 93.3632 134.922 93.9051 135.701 94.3427C135.8 94.3933 135.882 94.4732 135.936 94.5719C135.981 94.7 135.981 94.8398 135.936 94.9679C135.853 95.3076 135.867 95.6644 135.975 95.9965C136.084 96.3287 136.284 96.6224 136.551 96.8435C137.084 97.2815 137.701 97.6009 138.363 97.7813C140.841 98.6253 143.913 98.3961 146.156 99.7715C147.231 100.643 148.213 101.628 149.084 102.71C150.177 103.894 151.517 104.813 153.006 105.398C156.621 106.597 157.102 104.94 158.935 108.972C160.768 113.005 166.451 133.782 166.451 133.782L183.685 142.91Z" fill="#FFBDA7"/>
<path d="M154.317 93.2486C154.378 93.6028 154.01 93.8633 153.692 93.9154C153.373 93.9622 153.049 93.9622 152.73 93.9154C152.087 93.8654 151.449 93.7573 150.825 93.5924C149.576 93.2694 148.408 92.7692 147.21 92.5504C146.625 92.4218 146.027 92.3589 145.428 92.3629C145.148 92.3569 144.869 92.392 144.599 92.4671C144.371 92.524 144.165 92.6471 144.005 92.8213C143.739 93.1027 143.851 93.5507 144.179 93.9988C144.549 94.4575 144.984 94.8578 145.469 95.1867C146.527 95.8038 147.665 96.2668 148.849 96.5621C149.496 96.7433 150.114 97.0207 150.682 97.3853C151.241 97.7998 151.689 98.3518 151.982 98.99C152.279 99.6048 152.433 100.251 152.668 100.813C152.896 101.384 153.211 101.915 153.6 102.387C154.455 103.31 155.505 104.023 156.672 104.471C155.411 104.176 154.244 103.56 153.283 102.679C152.816 102.212 152.428 101.67 152.136 101.074C151.839 100.47 151.654 99.8653 151.357 99.3443C151.096 98.8233 150.708 98.3787 150.231 98.0522C149.72 97.751 149.168 97.5297 148.593 97.3957C147.311 97.1188 146.081 96.637 144.947 95.9682C144.377 95.5816 143.869 95.107 143.442 94.5615C143.212 94.253 143.052 93.8975 142.971 93.5195C142.936 93.293 142.95 93.0614 143.014 92.8415C143.078 92.6216 143.189 92.4189 143.339 92.2482C143.615 91.9951 143.94 91.8032 144.292 91.6848C144.645 91.5664 145.018 91.5241 145.387 91.5605C146.053 91.5703 146.715 91.672 147.354 91.8627C148.613 92.217 149.76 92.7797 150.938 93.186C151.519 93.4151 152.118 93.5929 152.73 93.7175C153.029 93.7797 153.336 93.8007 153.641 93.78C153.72 93.7948 153.802 93.7925 153.88 93.7732C153.958 93.7539 154.032 93.718 154.095 93.6679C154.159 93.6177 154.212 93.5545 154.25 93.4822C154.288 93.41 154.311 93.3303 154.317 93.2486Z" fill="#F0997A"/>
<path d="M142.438 92.0607C143.006 91.1843 143.338 90.1717 143.401 89.124C143.464 88.0764 143.255 87.0302 142.797 86.09C141.988 84.1936 140.37 82.2242 135.782 80.036C130.324 77.4206 115.538 75.9931 108.636 86.0588C107.612 87.5176 123.146 114.63 122.655 120.445C126.249 116.277 138.117 101.689 138.117 101.689C141.005 100.303 142.735 99.1567 143.237 96.3121C143.419 94.8447 143.139 93.3564 142.438 92.0607Z" fill="#382626"/>
<path d="M140.524 100.032C140.524 100.032 144.732 106.472 144.323 107.024C143.426 107.8 142.467 108.497 141.455 109.108L140.524 100.032Z" fill="#F0997A"/>
<path d="M135.168 88.1636C137.882 89.3306 140.288 91.2896 141.312 97.229C141.588 98.7712 140.472 100.939 141.097 102.981C143.739 111.734 141.271 119.215 139.643 120.903C138.537 122.049 132.588 122.768 129.403 122.008C125.45 121.049 116.787 117.465 112.497 111.39C107.448 104.252 105.964 94.4364 111.135 90.2684C118.405 84.402 132.26 86.9028 135.168 88.1636Z" fill="#FFBDA7"/>
<path d="M115.251 116.287L114.309 126.863C111.964 127.603 112.374 130.959 113.756 133.022L113.48 136.148L128.768 137.544L131.072 119.674L115.251 116.287Z" fill="#FFBDA7"/>
<path d="M139.315 121.143C137.953 121.977 134.912 122.675 130.734 122.247L130.99 120.059C132.291 120.53 133.631 120.879 134.994 121.101C136.425 121.33 137.881 121.344 139.315 121.143Z" fill="#F0997A"/>
<path d="M139.203 91.175C139.489 95.02 137.155 96.3225 135.506 97.1456C136.202 98.5379 136.501 100.101 136.366 101.657C136.069 103.627 135.393 105.252 133.53 105.971C132.393 106.419 132.035 105.909 131.584 105.002C130.949 103.7 130.14 101.71 127.375 102.21C124.201 102.772 123.546 107.691 125.522 110.827C125.907 111.488 126.444 112.044 127.085 112.449C127.727 112.853 128.455 113.094 129.208 113.151C129.622 113.126 130.026 113.011 130.393 112.816C130.76 112.62 131.082 112.347 131.338 112.015C131.338 112.015 131.338 116.298 125.993 119.028C125.993 119.028 120.668 122.362 115.036 120.893C112.409 118.161 109.927 115.288 107.602 112.286C101.376 103.867 99.6352 88.0802 109.568 84.85C110.039 84.6937 119.071 83.0578 123.525 83.808C137.216 86.3297 139.151 90.5081 139.203 91.175Z" fill="#382626"/>
<path d="M131.338 112.015C131.338 116.767 129.393 121.654 125.297 124.206C122.949 125.756 120.133 126.395 117.361 126.009C114.35 125.561 111.462 124.342 108.401 124.259C102.103 124.092 96.4199 128.937 90.1325 128.552C86.7375 128.226 83.5609 126.704 81.152 124.248C79.104 122.258 77.4042 119.788 74.9056 118.455C72.4071 117.121 69.3146 117.1 66.4884 116.444C62.7079 115.55 59.3068 113.45 56.7808 110.452C54.9841 108.43 53.8778 105.872 53.6269 103.158C53.599 101.832 53.9193 100.523 54.5547 99.3654C55.1902 98.2077 56.1177 97.2436 57.2416 96.5726C59.177 95.3534 62.1159 94.9158 64.041 93.6758C66.2016 92.3004 66.4781 89.7162 68.393 87.9969C70.3568 86.4141 72.7527 85.4862 75.2538 85.3398C78.4982 85.0187 81.7724 85.4205 84.8487 86.5173C88.32 87.7781 91.6992 89.9559 95.3754 89.6433C98.8058 89.3307 101.663 87.0695 104.253 84.9751C107.776 82.1513 110.899 80.9947 113.469 81.3698C113.613 81.3698 113.142 110.421 121.836 113.745C130.529 117.069 131.338 112.015 131.338 112.015Z" fill="#382626"/>
<path d="M98.4167 134.543C100.178 129.666 111.596 126.613 110.889 126.561C112.456 126.686 114.309 126.864 114.309 126.864C113.357 128.791 114.729 130.156 117.197 130.875C120.392 131.813 125.297 132.157 128.748 130.073L129.772 129.375C132.762 129.808 135.725 130.409 138.65 131.177C144.046 133.261 145.398 135.127 150.999 149.933C153.385 156.258 151.91 162.813 145.459 166.397C144.978 170.305 144.435 176.452 144.435 176.452C146.216 184.844 147.522 193.333 148.347 201.877C148.347 201.877 144.947 209.723 121.406 208.4C103.189 207.358 94.6996 197.98 94.6996 197.98C95.1501 193.426 97.9764 186.164 103.782 172.451C96.9729 152.726 95.8977 141.524 98.4167 134.543Z" fill="#382626"/>
<path d="M114.309 126.863C114.309 126.863 106.68 130.302 105.144 135.262L97.9763 134.345C97.9763 134.345 102.892 128.364 108.943 126.561C112.998 126.155 114.309 126.863 114.309 126.863Z" fill="#CA0000"/>
<path opacity="0.35" d="M114.309 126.863C114.309 126.863 106.68 130.302 105.144 135.262L97.9763 134.345C97.9763 134.345 102.892 128.364 108.943 126.561C112.712 126.155 114.309 126.863 114.309 126.863Z" fill="black"/>
<path d="M130.847 142.358C130.847 142.358 134.257 132.397 138.701 131.177C135.977 130.246 133.142 129.693 130.273 129.531C127.313 131.726 124.96 134.662 123.443 138.055L130.847 142.358Z" fill="#CA0000"/>
<path opacity="0.35" d="M130.847 142.358C130.847 142.358 134.257 132.397 138.701 131.177C135.977 130.246 133.142 129.693 130.273 129.531C127.313 131.726 124.96 134.662 123.443 138.055L130.847 142.358Z" fill="black"/>
<path d="M102.267 129.312C97.9047 128.979 91.1873 133.386 89.5796 136.742C87.89 140.264 80.9985 188.842 84.603 193.635C89.0881 199.647 111.79 212.255 121.856 212.568C124.696 212.646 127.51 211.987 130.03 210.652C132.551 209.318 134.696 207.352 136.264 204.941C138.414 201.377 136.981 150.871 134.451 146.474C130.335 139.305 107.817 129.74 102.267 129.312Z" fill="#CA0000"/>
<path opacity="0.2" d="M102.267 129.312C97.9047 128.979 91.1873 133.386 89.5796 136.742C87.89 140.264 80.9985 188.842 84.603 193.635C89.0881 199.647 111.79 212.255 121.856 212.568C124.696 212.646 127.51 211.987 130.03 210.652C132.551 209.318 134.696 207.352 136.264 204.941C138.414 201.377 136.981 150.871 134.451 146.474C130.335 139.305 107.817 129.74 102.267 129.312Z" fill="white"/>
<path opacity="0.1" d="M136.981 172.159C136.899 170.075 136.807 167.991 136.694 165.907C136.694 165.094 136.612 164.303 136.561 163.511C136.469 161.948 136.366 160.385 136.264 158.999C136.264 158.28 136.151 157.582 136.1 156.915C136.008 155.873 135.926 154.935 135.834 154.028C135.742 153.122 135.639 152.278 135.537 151.507C135.537 151.246 135.475 150.996 135.434 150.757C135.308 149.268 134.963 147.807 134.41 146.422C134.291 146.211 134.158 146.009 134.011 145.817C133.967 145.746 133.919 145.676 133.868 145.609L133.54 145.192L133.335 144.953C133.223 144.817 133.1 144.692 132.977 144.557L132.741 144.307L132.158 143.744L131.758 143.369L131.471 143.129L131.072 142.754L130.837 142.566L130.284 142.129C126.331 143.546 125.87 143.317 125.758 143.39C125.645 143.463 121.477 145.724 121.528 151.913L120.975 176.921L120.914 179.297C120.914 182.611 117.371 213.047 126.638 211.839H127.007C133.263 209.973 135.199 206.629 136.295 204.951C136.523 204.428 136.672 203.873 136.735 203.305C136.735 202.982 136.827 202.617 136.878 202.263C136.878 202.068 136.899 201.86 136.94 201.637C137.001 200.991 137.052 200.262 137.093 199.47C137.093 199.199 137.093 198.928 137.093 198.647C137.298 194.479 137.339 188.644 137.237 182.402C137.237 181.162 137.237 179.891 137.165 178.62C137.165 177.776 137.165 176.921 137.093 176.077C137.093 175.65 137.093 175.223 137.093 174.795C137.042 173.847 137.011 172.972 136.981 172.159Z" fill="black"/>
<path opacity="0.4" d="M135.168 149.267C135.045 148.29 134.786 147.335 134.4 146.432C130.304 139.305 107.776 129.76 102.226 129.312C97.8638 128.979 91.1464 133.386 89.5387 136.742C89.0497 138.186 88.6864 139.671 88.4532 141.181C97.0548 146.391 119.306 158.144 121.641 157.425C124.498 156.55 134.953 149.662 135.158 149.277L135.168 149.267Z" fill="black"/>
<path d="M110.93 185.028C106.363 182.558 96.2151 176.025 93.3888 174.525C92.9242 174.213 92.387 174.032 91.8315 173.999C91.276 173.966 90.7217 174.082 90.2247 174.337C89.8151 174.608 88.3815 175.546 88.0026 175.754C87.7004 175.931 87.4477 176.184 87.2685 176.489C87.0893 176.793 86.9895 177.14 86.9786 177.494C86.8045 182.777 86.6304 184.945 86.8045 187.508C86.9172 189.258 87.2039 190.821 89.6717 192.801C92.1396 194.781 102.871 201.283 106.056 203.044C109.046 204.69 112.2 205.972 113.572 205.066C113.92 204.826 115.477 203.878 115.886 203.607C116.101 203.438 116.27 203.216 116.379 202.963C116.488 202.71 116.534 202.434 116.511 202.158C116.511 199.449 116.726 193.677 116.787 191.738C116.869 189.279 115.712 187.633 110.93 185.028Z" fill="#CA0000"/>
<path opacity="0.3" d="M110.93 185.028C106.363 182.558 96.2151 176.025 93.3888 174.525C92.9242 174.213 92.387 174.032 91.8315 173.999C91.276 173.966 90.7217 174.082 90.2247 174.337C89.8151 174.608 88.3815 175.546 88.0026 175.754C87.7004 175.931 87.4477 176.184 87.2685 176.489C87.0893 176.793 86.9895 177.14 86.9786 177.494C86.8045 182.777 86.6304 184.945 86.8045 187.508C86.9172 189.258 87.2039 190.821 89.6717 192.801C92.1396 194.781 102.871 201.283 106.056 203.044C109.046 204.69 112.2 205.972 113.572 205.066C113.92 204.826 115.477 203.878 115.886 203.607C116.101 203.438 116.27 203.216 116.379 202.963C116.488 202.71 116.534 202.434 116.511 202.158C116.511 199.449 116.726 193.677 116.787 191.738C116.869 189.279 115.712 187.633 110.93 185.028Z" fill="black"/>
<path opacity="0.4" d="M114.084 190.957L116.429 189.602C115.804 188.154 114.238 186.81 110.93 185.028C106.363 182.558 96.2151 176.025 93.3889 174.525C92.9243 174.213 92.3871 174.032 91.8315 173.999C91.276 173.966 90.7218 174.082 90.2247 174.337C89.8151 174.608 88.3815 175.546 88.0026 175.754C87.5521 176.022 87.2188 176.454 87.0708 176.963L114.084 190.957Z" fill="black"/>
<path d="M87.0401 177.494C86.8661 182.777 86.692 184.945 86.8661 187.508C86.9787 189.258 87.2654 190.821 89.7332 192.801C92.2011 194.781 102.933 201.283 106.117 203.044C110.008 205.191 114.309 206.722 114.309 203.617C114.309 200.908 114.524 195.146 114.586 193.197C114.657 190.769 113.562 189.113 108.718 186.508C104.151 184.048 93.9931 177.515 91.1771 176.004C88.7093 174.712 87.0401 175.91 87.0401 177.494Z" fill="#CA0000"/>
<path opacity="0.18" d="M87.0401 177.494C86.8661 182.777 86.692 184.945 86.8661 187.508C86.9787 189.258 87.2654 190.821 89.7332 192.801C92.2011 194.781 102.933 201.283 106.117 203.044C110.008 205.191 114.309 206.722 114.309 203.617C114.309 200.908 114.524 195.146 114.586 193.197C114.657 190.769 113.562 189.113 108.718 186.508C104.151 184.048 93.9931 177.515 91.1771 176.004C88.7093 174.712 87.0401 175.91 87.0401 177.494Z" fill="black"/>
<path d="M116.429 189.644C115.927 188.248 113.674 189.165 113.203 190.999C112.732 192.833 112.824 195.271 112.589 196.073C112.353 196.876 87.2756 181.964 86.5793 181.12C86.2619 180.735 86.4871 176.286 87.3678 175.494C88.2484 174.702 90.2862 173.316 91.6583 173.618C93.0305 173.92 108.257 183.059 111.227 184.674C114.197 186.289 116.542 187.873 116.429 189.644Z" fill="#CA0000"/>
<path opacity="0.1" d="M116.429 189.644C115.927 188.248 113.674 189.165 113.203 190.999C112.732 192.833 112.824 195.271 112.589 196.073C112.353 196.876 87.2756 181.964 86.5793 181.12C86.2619 180.735 86.4871 176.286 87.3678 175.494C88.2484 174.702 90.2862 173.316 91.6583 173.618C93.0305 173.92 108.257 183.059 111.227 184.674C114.197 186.289 116.542 187.873 116.429 189.644Z" fill="black"/>
<path d="M87.3678 175.452C86.6203 176.067 86.2721 178.818 86.2004 181.173C86.1287 183.527 94.29 191.999 96.9831 193.322C99.6763 194.646 112.62 197.751 112.763 196.219C112.906 194.687 112.876 191.207 113.5 190.238C113.644 190.009 104.745 185.372 99.5636 182.61C94.3822 179.849 88.0641 174.931 87.3678 175.452Z" fill="#CA0000"/>
<path d="M98.0891 188.321C98.4159 188.527 98.683 188.818 98.8629 189.164C99.0429 189.51 99.1292 189.899 99.1131 190.29C99.1238 190.444 99.0922 190.599 99.0217 190.736C98.9513 190.873 98.8447 190.987 98.714 191.066C98.5833 191.145 98.4336 191.185 98.2817 191.183C98.1297 191.18 97.9815 191.134 97.8536 191.051C97.5259 190.845 97.2583 190.554 97.0782 190.208C96.8982 189.862 96.8124 189.473 96.8296 189.081C96.891 188.31 97.4542 187.977 98.0891 188.321Z" fill="#4F3737"/>
<path opacity="0.15" d="M85.2378 163.594C85.6884 159.749 85.9341 157.123 86.4564 153.914C87.6544 153.028 89.3236 151.924 89.3236 151.924L100.055 155.716L110.101 159.27L112.384 160.072C113.091 160.333 113.818 160.781 114.524 160.979C116.357 161.479 119.009 159.937 120.351 158.895C121.692 157.853 122.511 156.811 124.242 156.446C124.112 159.919 123.955 163.41 123.771 166.918C123.597 170.2 123.658 173.524 122.655 176.64C122.413 177.43 121.977 178.143 121.387 178.713C120.797 179.282 120.074 179.687 119.286 179.891C117.37 180.292 115.395 180.292 113.48 179.891C113.48 179.891 113.306 182.84 113.029 184.288C112.794 184.825 112.449 185.304 112.019 185.696C111.588 186.087 111.081 186.382 110.531 186.56C108.851 186.112 108.575 178.13 108.575 178.13L95.7543 171.18C95.8023 172.298 95.7129 173.418 95.488 174.514C94.8224 175.619 93.522 176.838 93.0202 176.713C90.8903 176.16 91.0644 168.502 91.0644 168.502C88.8436 167.242 86.8687 165.579 85.2378 163.594Z" fill="black"/>
<path d="M101.816 129.281C99.3713 129.231 96.9495 129.772 94.7494 130.858C92.5493 131.945 90.6338 133.547 89.1598 135.533C86.6305 139.201 83.7326 157.717 85.4222 161.104C87.1118 164.49 100.352 172.253 108.339 176.098C114.729 179.224 117.985 178.463 120.463 177.192C122.327 176.233 122.286 173.097 122.45 170.784C122.89 164.803 123.361 154.112 127.017 150.798C130.673 147.485 134.185 146.547 135.209 149.266C135.209 149.266 136.366 145.338 129.065 141.035C117.095 133.897 107.704 129.656 101.816 129.281Z" fill="#CA0000"/>
<path opacity="0.1" d="M101.816 129.281C99.3713 129.231 96.9495 129.772 94.7494 130.858C92.5493 131.945 90.6338 133.547 89.1598 135.533C86.6305 139.201 83.7326 157.717 85.4222 161.104C87.1118 164.49 100.352 172.253 108.339 176.098C114.729 179.224 117.985 178.463 120.463 177.192C122.327 176.233 122.286 173.097 122.45 170.784C122.89 164.803 123.361 154.112 127.017 150.798C130.673 147.485 134.185 146.547 135.209 149.266C135.209 149.266 136.366 145.338 129.065 141.035C117.095 133.897 107.704 129.656 101.816 129.281Z" fill="black"/>
<path d="M88.5044 136.773C86.1697 142.254 83.8759 157.988 85.4324 161.083C87.0913 164.407 100.352 172.253 108.339 176.098C114.729 179.224 117.985 178.463 120.463 177.192C122.327 176.233 122.286 173.097 122.45 170.784C122.778 166.397 123.126 159.457 124.723 154.768C117.074 150.986 96.7783 140.91 88.5044 136.773Z" fill="#CA0000"/>
<path d="M109.199 162.385L113.418 164.303C113.418 164.303 112.108 178.38 111.985 183.548C111.985 183.548 110.961 185.716 109.937 186.018C108.913 186.32 107.889 183.757 107.694 181.85C107.5 179.943 108.626 166.835 109.199 162.385Z" fill="#644545"/>
<path d="M109.046 163.396L113.347 165.199C113.452 165.253 113.57 165.279 113.688 165.275C113.806 165.271 113.922 165.237 114.024 165.176C114.126 165.115 114.211 165.028 114.271 164.925C114.332 164.822 114.366 164.704 114.371 164.584L114.596 162.5C114.61 162.258 114.552 162.017 114.429 161.809C114.307 161.601 114.126 161.435 113.91 161.333L109.619 159.426C109.515 159.369 109.398 159.34 109.279 159.343C109.161 159.345 109.045 159.378 108.942 159.438C108.839 159.499 108.754 159.585 108.693 159.688C108.632 159.792 108.599 159.91 108.595 160.03L108.37 162.239C108.356 162.479 108.413 162.717 108.533 162.923C108.654 163.13 108.832 163.294 109.046 163.396Z" fill="#4F3737"/>
<path d="M109.875 179.808C110.217 179.994 110.504 180.27 110.706 180.607C110.908 180.944 111.017 181.33 111.022 181.725C111.04 181.878 111.016 182.033 110.952 182.173C110.889 182.313 110.788 182.433 110.662 182.518C110.536 182.603 110.388 182.651 110.237 182.657C110.085 182.662 109.935 182.624 109.804 182.548C109.462 182.362 109.176 182.086 108.976 181.748C108.776 181.411 108.669 181.025 108.667 180.631C108.687 179.86 109.23 179.495 109.875 179.808Z" fill="#E0E0E0"/>
<path d="M91.9348 152.663L96.0308 154.799C96.0308 154.799 94.8737 168.804 94.4846 173.899C94.4846 173.899 93.3172 175.983 92.3649 176.254C91.4126 176.525 90.3886 173.899 90.3169 172.013C90.5346 165.54 91.0746 159.081 91.9348 152.663Z" fill="#644545"/>
<path d="M91.7403 153.674L95.9489 155.696C96.0512 155.746 96.1638 155.771 96.2775 155.769C96.3911 155.766 96.5026 155.736 96.6026 155.681C96.7027 155.626 96.7884 155.548 96.8528 155.453C96.9172 155.357 96.9584 155.248 96.9729 155.133L97.3006 153.049C97.3262 152.809 97.2804 152.566 97.1691 152.352C97.0577 152.139 96.8859 151.964 96.676 151.851L92.4571 149.767C92.3562 149.711 92.2435 149.682 92.1288 149.681C92.0141 149.681 91.9011 149.709 91.7998 149.764C91.6985 149.819 91.612 149.898 91.548 149.995C91.4841 150.091 91.4446 150.203 91.4331 150.319L91.1361 152.486C91.1094 152.723 91.1526 152.962 91.2602 153.174C91.3678 153.386 91.5349 153.56 91.7403 153.674Z" fill="#4F3737"/>
<path d="M92.5697 170.054C92.8966 170.263 93.1635 170.557 93.3433 170.904C93.5232 171.252 93.6095 171.642 93.5937 172.034C93.6024 172.188 93.5693 172.341 93.498 172.476C93.4267 172.611 93.32 172.724 93.1897 172.802C93.0594 172.879 92.9105 172.919 92.7595 172.916C92.6086 172.913 92.4613 172.867 92.3342 172.784C92.0058 172.58 91.7375 172.289 91.5574 171.942C91.3773 171.596 91.2919 171.207 91.3102 170.815C91.3716 170.054 91.9348 169.711 92.5697 170.054Z" fill="#E0E0E0"/>
<path d="M140.677 183.465C140.421 183.309 136.663 180.193 136.223 179.943C135.445 179.495 123.935 186.664 122.911 187.925C122.163 188.8 123.044 203.075 123.464 204.107C123.617 204.482 127.775 207.233 127.928 207.629C128.348 208.671 140.452 201.377 141.24 199.533C142.029 197.688 141.814 184.111 140.677 183.465Z" fill="#CA0000"/>
<path opacity="0.18" d="M140.677 183.465C140.421 183.309 136.663 180.193 136.223 179.943C135.445 179.495 123.935 186.664 122.911 187.925C122.163 188.8 123.044 203.075 123.464 204.107C123.617 204.482 127.775 207.233 127.928 207.629C128.348 208.671 140.452 201.377 141.24 199.533C142.029 197.688 141.814 184.111 140.677 183.465Z" fill="black"/>
<path d="M127.375 191.436C126.628 192.322 127.498 206.587 127.928 207.629C128.358 208.671 140.452 201.377 141.24 199.533C142.029 197.688 141.824 184.111 140.687 183.465C139.909 183.017 128.44 190.175 127.375 191.436Z" fill="#CA0000"/>
<path opacity="0.4" d="M136.192 179.943C136.632 180.193 140.391 183.319 140.647 183.454C139.879 183.017 128.41 190.175 127.335 191.436L122.88 187.925C123.986 186.653 135.445 179.495 136.192 179.943Z" fill="black"/>
<path opacity="0.3" d="M127.375 191.436C126.628 192.322 127.498 206.587 127.928 207.629C128.358 208.671 140.452 201.377 141.24 199.533C142.029 197.688 141.824 184.111 140.687 183.465C139.909 183.017 128.44 190.175 127.375 191.436Z" fill="black"/>
<path d="M122.88 187.925C123.73 187.414 126.229 188.967 127.304 189.915C128.379 190.863 129.475 195.448 132.27 196.302C135.066 197.157 139.1 193.593 139.971 191.217C140.841 188.842 141.927 183.819 140.595 181.933C139.264 180.047 136.909 178.943 134.902 179.922C132.895 180.902 123.198 185.716 122.88 187.925Z" fill="#CA0000"/>
<path opacity="0.2" d="M122.88 187.925C123.73 187.414 126.229 188.967 127.304 189.915C128.379 190.863 129.475 195.448 132.27 196.302C135.066 197.157 139.1 193.593 139.971 191.217C140.841 188.842 141.927 183.819 140.595 181.933C139.264 180.047 136.909 178.943 134.902 179.922C132.895 180.902 123.198 185.716 122.88 187.925Z" fill="black"/>
<path d="M135.527 190.561C135.198 190.753 134.929 191.034 134.748 191.372C134.567 191.711 134.482 192.094 134.503 192.478C134.495 192.635 134.529 192.79 134.6 192.929C134.671 193.068 134.777 193.186 134.907 193.269C135.037 193.353 135.187 193.4 135.34 193.406C135.494 193.411 135.647 193.375 135.783 193.301C136.116 193.116 136.391 192.836 136.572 192.496C136.754 192.156 136.835 191.77 136.807 191.384C136.725 190.623 136.192 190.248 135.527 190.561Z" fill="#4F3737"/>
<path d="M139.315 131.417C143.555 131.344 145.142 132.397 148.296 133.032C152.586 133.887 168.97 130.531 168.97 130.531C168.97 130.531 175.606 130.281 179.896 132.313C184.73 134.595 185.979 137.117 185.866 139.117C185.723 141.92 183.726 143.483 178.616 145.369C174.592 146.818 154.993 152.278 147.794 153.195C137.277 154.508 132.096 137.117 139.315 131.417Z" fill="#FFBDA7"/>
<path d="M165.673 131.167C171.233 130.531 176.312 130.125 180.122 133.324C178.852 130.26 175.206 128.114 165.13 129.156L165.673 131.167Z" fill="#F0997A"/>
</svg>
